ISO-10303-21;
HEADER;
FILE_DESCRIPTION (( 'STEP AP203' ),
    '1' );
FILE_NAME ('47245K115_Check Valve.STEP',
    '2026-08-24T18:27:23',
    ( 'McMaster Carr Supply' ),
    ( 'McMaster Carr Supply' ),
    'SwSTEP 2.0',
    'SolidWorks 2024',
    '' );
FILE_SCHEMA (( 'CONFIG_CONTROL_DESIGN' ));
ENDSEC;

DATA;
#1 = FACE_OUTER_BOUND ( 'NONE', #447, .T. ) ;
#2 = ORIENTED_EDGE ( 'NONE', *, *, #307, .F. ) ;
#3 = LINE ( 'NONE', #1088, #125 ) ;
#4 = CARTESIAN_POINT ( 'NONE',  ( 0.000000000000000000, 1.431143806433844687E-17, 0.6249999999999998890 ) ) ;
#5 = DIRECTION ( 'NONE',  ( -0.000000000000000000, 1.199596774661888198E-16, 1.000000000000000000 ) ) ;
#6 = AXIS2_PLACEMENT_3D ( 'NONE', #1173, #294, #801 ) ;
#7 = CARTESIAN_POINT ( 'NONE',  ( 0.3874999999889000013, 2.933004260273500493E-06, 2.735586639785952591E-06 ) ) ;
#8 = LOCAL_TIME ( 13, 27, 23.00000000000000000, #894 ) ;
#9 = EDGE_CURVE ( 'NONE', #708, #552, #599, .T. ) ;
#10 = EDGE_CURVE ( 'NONE', #11, #381, #51, .T. ) ;
#11 = VERTEX_POINT ( 'NONE', #1083 ) ;
#12 = CARTESIAN_POINT ( 'NONE',  ( 0.000000000000000000, -0.07249999999999946765, 0.3870000000000017315 ) ) ;
#13 = CIRCLE ( 'NONE', #245, 0.3775000000000000022 ) ;
#14 = APPROVAL ( #103, 'UNSPECIFIED' ) ;
#15 = CARTESIAN_POINT ( 'NONE',  ( 0.3847291339280936029, -0.04625736165129919891, 0.07820299421398962947 ) ) ;
#16 = CIRCLE ( 'NONE', #297, 0.03999999999999997308 ) ;
#17 = CARTESIAN_POINT ( 'NONE',  ( 0.000000000000000000, 1.671063161366223189E-17, 0.6449999999999999067 ) ) ;
#18 = VERTEX_POINT ( 'NONE', #192 ) ;
#19 = CARTESIAN_POINT ( 'NONE',  ( 0.3775001139643149872, -0.01505520547743246194, 0.02606948190046754280 ) ) ;
#20 = DIRECTION ( 'NONE',  ( -0.000000000000000000, 1.199596774661888198E-16, 1.000000000000000000 ) ) ;
#21 = DIRECTION ( 'NONE',  ( -0.000000000000000000, 1.199596774661888198E-16, 1.000000000000000000 ) ) ;
#22 = DATE_AND_TIME ( #805, #1100 ) ;
#23 = ORIENTED_EDGE ( 'NONE', *, *, #214, .F. ) ;
#24 = CARTESIAN_POINT ( 'NONE',  ( 0.3748006401493039763, -0.04506362328610438728, 0.07820299421398962947 ) ) ;
#25 = CARTESIAN_POINT ( 'NONE',  ( 0.000000000000000000, -1.272049934425244665E-16, -0.5546999999999999709 ) ) ;
#26 = CARTESIAN_POINT ( 'NONE',  ( 0.000000000000000000, -0.1349999999999995093, 0.2430999999999998717 ) ) ;
#27 = EDGE_CURVE ( 'NONE', #165, #668, #211, .T. ) ;
#28 = PERSON_AND_ORGANIZATION_ROLE ( 'creator' ) ;
#29 = DIRECTION ( 'NONE',  ( -0.000000000000000000, 1.199596774661888198E-16, 1.000000000000000000 ) ) ;
#30 = DIRECTION ( 'NONE',  ( 0.000000000000000000, -1.000000000000000000, 0.000000000000000000 ) ) ;
#31 = CIRCLE ( 'NONE', #731, 0.03999999999999997308 ) ;
#32 = AXIS2_PLACEMENT_3D ( 'NONE', #166, #469, #345 ) ;
#33 = CIRCLE ( 'NONE', #751, 0.02000000000000000042 ) ;
#34 = EDGE_CURVE ( 'NONE', #11, #178, #541, .T. ) ;
#35 = APPLICATION_CONTEXT ( 'configuration controlled 3d designs of mechanical parts and assemblies' ) ;
#36 = CIRCLE ( 'NONE', #1018, 0.02999999999999999889 ) ;
#37 = CARTESIAN_POINT ( 'NONE',  ( 0.000000000000000000, -8.162331499730942002E-17, -0.1747250000000001302 ) ) ;
#38 = PLANE ( 'NONE',  #537 ) ;
#39 = DIRECTION ( 'NONE',  ( 0.000000000000000000, -1.000000000000000000, 1.199596774661888198E-16 ) ) ;
#40 = CARTESIAN_POINT ( 'NONE',  ( -0.03999999999999997308, -6.712535799123320463E-17, -0.6449999999999999067 ) ) ;
#41 = DIRECTION ( 'NONE',  ( 0.000000000000000000, -1.000000000000000000, -1.356878142548475267E-16 ) ) ;
#42 = CIRCLE ( 'NONE', #341, 0.08749999999999974465 ) ;
#43 = DIRECTION ( 'NONE',  ( -0.000000000000000000, 1.199596774661888198E-16, 1.000000000000000000 ) ) ;
#44 = DIRECTION ( 'NONE',  ( 0.000000000000000000, -1.000000000000000000, 0.000000000000000000 ) ) ;
#45 = ADVANCED_FACE ( 'NONE', ( #803 ), #1104, .T. ) ;
#46 = EDGE_LOOP ( 'NONE', ( #781, #1152 ) ) ;
#47 = CIRCLE ( 'NONE', #372, 0.03999999999999997308 ) ;
#48 = ADVANCED_FACE ( 'NONE', ( #1005 ), #798, .F. ) ;
#49 = CARTESIAN_POINT ( 'NONE',  ( 0.000000000000000000, 1.671063161366223189E-17, 0.6449999999999999067 ) ) ;
#50 = AXIS2_PLACEMENT_3D ( 'NONE', #4, #1119, #928 ) ;
#51 = CIRCLE ( 'NONE', #402, 0.04249999999999972550 ) ;
#52 = CIRCLE ( 'NONE', #1138, 0.03999999999999997308 ) ;
#53 = DIRECTION ( 'NONE',  ( 0.000000000000000000, -1.356878142548475267E-16, 1.000000000000000000 ) ) ;
#54 = ORIENTED_EDGE ( 'NONE', *, *, #268, .T. ) ;
#55 = PRODUCT ( '47245K115_Check Valve', '47245K115_Check Valve', '', ( #1006 ) ) ;
#56 = CARTESIAN_POINT ( 'NONE',  ( 0.000000000000000000, 0.06249999999999995837, -0.6449999999999999067 ) ) ;
#57 = FACE_OUTER_BOUND ( 'NONE', #1248, .T. ) ;
#58 = ORIENTED_EDGE ( 'NONE', *, *, #101, .T. ) ;
#59 = CYLINDRICAL_SURFACE ( 'NONE', #1116, 0.3775000000000000022 ) ;
#60 = ORIENTED_EDGE ( 'NONE', *, *, #228, .F. ) ;
#61 = EDGE_CURVE ( 'NONE', #242, #956, #939, .T. ) ;
#62 = CARTESIAN_POINT ( 'NONE',  ( 0.000000000000000000, -4.828352163751888445E-17, 0.1031999999999998058 ) ) ;
#63 = VERTEX_POINT ( 'NONE', #582 ) ;
#64 = DIRECTION ( 'NONE',  ( 0.000000000000000000, 0.000000000000000000, 1.000000000000000000 ) ) ;
#65 = AXIS2_PLACEMENT_3D ( 'NONE', #420, #892, #912 ) ;
#66 = ORIENTED_EDGE ( 'NONE', *, *, #1017, .F. ) ;
#67 = VECTOR ( 'NONE', #1232, 39.37007874015748143 ) ;
#68 = DIRECTION ( 'NONE',  ( 0.000000000000000000, -1.000000000000000000, 0.000000000000000000 ) ) ;
#69 = DIRECTION ( 'NONE',  ( 0.000000000000000000, -1.000000000000000000, 0.000000000000000000 ) ) ;
#70 = TOROIDAL_SURFACE ( 'NONE', #1220, 0.3474999999999999756, 0.02999999999999999889 ) ;
#71 = ORIENTED_EDGE ( 'NONE', *, *, #517, .F. ) ;
#72 = CARTESIAN_POINT ( 'NONE',  ( 0.000000000000000000, 0.3774999999999999467, 0.1505999999999998451 ) ) ;
#73 = ORIENTED_EDGE ( 'NONE', *, *, #1128, .F. ) ;
#74 = EDGE_LOOP ( 'NONE', ( #1125, #356, #111, #1087 ) ) ;
#75 = CARTESIAN_POINT ( 'NONE',  ( 0.3774999999891433533, 2.863000702350368991E-06, 2.745429942413446088E-06 ) ) ;
#76 = EDGE_CURVE ( 'NONE', #1251, #1246, #856, .T. ) ;
#77 = ORIENTED_EDGE ( 'NONE', *, *, #881, .T. ) ;
#78 = DIRECTION ( 'NONE',  ( 0.000000000000000000, -1.000000000000000000, -1.356878142548475020E-16 ) ) ;
#79 = ORIENTED_EDGE ( 'NONE', *, *, #313, .F. ) ;
#80 = EDGE_LOOP ( 'NONE', ( #406, #470 ) ) ;
#81 = CARTESIAN_POINT ( 'NONE',  ( 0.3783958210692202062, 0.01516678113062662481, 0.07819861306148584434 ) ) ;
#82 = VERTEX_POINT ( 'NONE', #306 ) ;
#83 = ADVANCED_FACE ( 'NONE', ( #590 ), #199, .T. ) ;
#84 = B_SPLINE_CURVE_WITH_KNOTS ( 'NONE', 3,
 ( #1262, #387, #948, #572 ),
 .UNSPECIFIED., .F., .F.,
 ( 4, 4 ),
 ( 0.000000000000000000, 1.000000000000000000 ),
 .UNSPECIFIED. ) ;
#85 = CARTESIAN_POINT ( 'NONE',  ( 0.000000000000000000, -1.070877555314446125E-16, -0.3869999999999998441 ) ) ;
#86 = ORIENTED_EDGE ( 'NONE', *, *, #61, .F. ) ;
#87 = EDGE_CURVE ( 'NONE', #652, #1032, #146, .T. ) ;
#88 = TOROIDAL_SURFACE ( 'NONE', #452, 0.04249999999999972550, 0.02000000000000000042 ) ;
#89 = DIRECTION ( 'NONE',  ( -0.000000000000000000, -0.000000000000000000, 1.000000000000000000 ) ) ;
#90 = DIRECTION ( 'NONE',  ( -0.000000000000000000, 1.199596774661888198E-16, 1.000000000000000000 ) ) ;
#91 = AXIS2_PLACEMENT_3D ( 'NONE', #37, #822, #424 ) ;
#92 = EDGE_LOOP ( 'NONE', ( #156, #503 ) ) ;
#93 = VECTOR ( 'NONE', #1153, 39.37007874015748143 ) ;
#94 = PLANE ( 'NONE',  #190 ) ;
#95 = CARTESIAN_POINT ( 'NONE',  ( 0.000000000000000000, -4.259743292562152423E-17, 0.1505999999999999006 ) ) ;
#96 =( CONVERSION_BASED_UNIT ( 'INCH', #980 ) LENGTH_UNIT ( ) NAMED_UNIT ( #707 ) );
#97 = CARTESIAN_POINT ( 'NONE',  ( 4.255647627037051600E-17, 0.3474999999999999201, -0.02160000000000016074 ) ) ;
#98 = ORIENTED_EDGE ( 'NONE', *, *, #828, .T. ) ;
#99 = CARTESIAN_POINT ( 'NONE',  ( 0.000000000000000000, -4.828352163751888445E-17, 0.1031999999999998058 ) ) ;
#100 = DIRECTION ( 'NONE',  ( 0.000000000000000000, -1.000000000000000000, 0.000000000000000000 ) ) ;
#101 = EDGE_CURVE ( 'NONE', #390, #536, #663, .T. ) ;
#102 = ADVANCED_FACE ( 'NONE', ( #902 ), #109, .T. ) ;
#103 = APPROVAL_STATUS ( 'not_yet_approved' ) ;
#104 = DIRECTION ( 'NONE',  ( 0.000000000000000000, -1.000000000000000000, 1.309192329232077588E-16 ) ) ;
#105 = APPROVAL ( #617, 'UNSPECIFIED' ) ;
#106 = EDGE_LOOP ( 'NONE', ( #2, #1025, #283, #449 ) ) ;
#107 = CARTESIAN_POINT ( 'NONE',  ( 0.3748006401493039763, -0.04506362328610438728, 0.07820299421398962947 ) ) ;
#108 = CARTESIAN_POINT ( 'NONE',  ( 0.000000000000000000, -4.259743292562152423E-17, 0.1505999999999999006 ) ) ;
#109 = CYLINDRICAL_SURFACE ( 'NONE', #523, 0.3775000000000000022 ) ;
#110 = CIRCLE ( 'NONE', #429, 0.03000000000000002318 ) ;
#111 = ORIENTED_EDGE ( 'NONE', *, *, #1015, .F. ) ;
#112 = DIRECTION ( 'NONE',  ( 0.000000000000000000, -1.000000000000000000, 1.199596774661888198E-16 ) ) ;
#113 = CIRCLE ( 'NONE', #773, 0.07249999999999953704 ) ;
#114 = FACE_BOUND ( 'NONE', #266, .T. ) ;
#115 = VECTOR ( 'NONE', #814, 39.37007874015748143 ) ;
#116 = DIRECTION ( 'NONE',  ( 1.224646799147353700E-16, 1.000000000000000000, 0.000000000000000000 ) ) ;
#117 = DATE_AND_TIME ( #314, #205 ) ;
#118 = VERTEX_POINT ( 'NONE', #1102 ) ;
#119 = DIRECTION ( 'NONE',  ( -0.000000000000000000, -0.000000000000000000, 1.000000000000000000 ) ) ;
#120 = CARTESIAN_POINT ( 'NONE',  ( 0.000000000000000000, 0.08749999999999999445, -0.3869999999999999551 ) ) ;
#121 = DIRECTION ( 'NONE',  ( -0.000000000000000000, 1.199596774661888198E-16, 1.000000000000000000 ) ) ;
#122 = DIRECTION ( 'NONE',  ( -0.000000000000000000, 1.199596774661888198E-16, 1.000000000000000000 ) ) ;
#123 = FACE_OUTER_BOUND ( 'NONE', #260, .T. ) ;
#124 = ADVANCED_FACE ( 'NONE', ( #887 ), #499, .T. ) ;
#125 = VECTOR ( 'NONE', #29, 39.37007874015748143 ) ;
#126 = DIRECTION ( 'NONE',  ( 0.000000000000000000, 1.000000000000000000, -1.356878142548475020E-16 ) ) ;
#127 = SECURITY_CLASSIFICATION ( '', '', #1103 ) ;
#128 = CYLINDRICAL_SURFACE ( 'NONE', #714, 0.3775000000000000022 ) ;
#129 = TOROIDAL_SURFACE ( 'NONE', #480, 0.1349999999999994815, 0.06249999999999997918 ) ;
#130 = CYLINDRICAL_SURFACE ( 'NONE', #1055, 0.07249999999999946765 ) ;
#131 = AXIS2_PLACEMENT_3D ( 'NONE', #991, #919, #30 ) ;
#132 = DIRECTION ( 'NONE',  ( 0.000000000000000000, -1.000000000000000000, 0.000000000000000000 ) ) ;
#133 = DIRECTION ( 'NONE',  ( 0.000000000000000000, -1.199596774661888198E-16, -1.000000000000000000 ) ) ;
#134 = DIRECTION ( 'NONE',  ( 0.000000000000000000, -1.000000000000000000, 0.000000000000000000 ) ) ;
#135 = AXIS2_PLACEMENT_3D ( 'NONE', #62, #451, #255 ) ;
#136 = EDGE_CURVE ( 'NONE', #1028, #786, #841, .T. ) ;
#137 = ORIENTED_EDGE ( 'NONE', *, *, #649, .F. ) ;
#138 = DIRECTION ( 'NONE',  ( 0.000000000000000000, 1.000000000000000000, 0.000000000000000000 ) ) ;
#139 = ORIENTED_EDGE ( 'NONE', *, *, #625, .F. ) ;
#140 = CARTESIAN_POINT ( 'NONE',  ( 0.000000000000000000, -0.1956249999999997713, -0.1747250000000001857 ) ) ;
#141 = DIRECTION ( 'NONE',  ( -0.000000000000000000, 1.199596774661888198E-16, 1.000000000000000000 ) ) ;
#142 = ORIENTED_EDGE ( 'NONE', *, *, #542, .F. ) ;
#143 = CIRCLE ( 'NONE', #265, 0.07249999999999949540 ) ;
#144 = DIRECTION ( 'NONE',  ( 1.000000000000000000, 0.000000000000000000, 0.000000000000000000 ) ) ;
#145 = AXIS2_PLACEMENT_3D ( 'NONE', #530, #53, #930 ) ;
#146 = CIRCLE ( 'NONE', #320, 0.3474999999999999756 ) ;
#147 = EDGE_LOOP ( 'NONE', ( #812, #478, #1194, #253 ) ) ;
#148 = LINE ( 'NONE', #726, #1260 ) ;
#149 = EDGE_LOOP ( 'NONE', ( #1001, #1063, #476, #650 ) ) ;
#150 = DIRECTION ( 'NONE',  ( 0.000000000000000000, -1.000000000000000000, 0.000000000000000000 ) ) ;
#151 = EDGE_CURVE ( 'NONE', #708, #1140, #16, .T. ) ;
#152 = LINE ( 'NONE', #549, #394 ) ;
#153 = ORIENTED_EDGE ( 'NONE', *, *, #978, .T. ) ;
#154 = CARTESIAN_POINT ( 'NONE',  ( 0.000000000000000000, 0.3774999999999999467, -0.05160000000000009718 ) ) ;
#155 = VERTEX_POINT ( 'NONE', #915 ) ;
#156 = ORIENTED_EDGE ( 'NONE', *, *, #631, .T. ) ;
#157 = CARTESIAN_POINT ( 'NONE',  ( 0.000000000000000000, -3.899864260163586827E-17, 0.1805999999999998440 ) ) ;
#158 = ORIENTED_EDGE ( 'NONE', *, *, #750, .T. ) ;
#159 = DIRECTION ( 'NONE',  ( -0.000000000000000000, 1.199596774661888198E-16, 1.000000000000000000 ) ) ;
#160 = CIRCLE ( 'NONE', #898, 0.3775000000000000022 ) ;
#161 = EDGE_LOOP ( 'NONE', ( #779, #196 ) ) ;
#162 = AXIS2_PLACEMENT_3D ( 'NONE', #780, #175, #959 ) ;
#163 = CIRCLE ( 'NONE', #1159, 0.1231250000000001371 ) ;
#164 = CARTESIAN_POINT ( 'NONE',  ( 0.000000000000000000, -0.06250000000000008327, 0.6449999999999999067 ) ) ;
#165 = VERTEX_POINT ( 'NONE', #416 ) ;
#166 = CARTESIAN_POINT ( 'NONE',  ( 5.204748896376263487E-18, 0.04249999999999996836, -0.6249999999999998890 ) ) ;
#167 = AXIS2_PLACEMENT_3D ( 'NONE', #653, #1058, #471 ) ;
#168 = VERTEX_POINT ( 'NONE', #284 ) ;
#169 = CARTESIAN_POINT ( 'NONE',  ( 0.000000000000000000, -0.04250000000000023898, -0.6249999999999998890 ) ) ;
#170 = ORIENTED_EDGE ( 'NONE', *, *, #830, .T. ) ;
#171 = VECTOR ( 'NONE', #1062, 39.37007874015748143 ) ;
#172 =( NAMED_UNIT ( * ) SI_UNIT ( $, .STERADIAN. ) SOLID_ANGLE_UNIT ( ) );
#173 = ADVANCED_FACE ( 'NONE', ( #1073 ), #378, .T. ) ;
#174 = EDGE_LOOP ( 'NONE', ( #176, #860, #994, #182 ) ) ;
#175 = DIRECTION ( 'NONE',  ( -0.000000000000000000, 1.199596774661888198E-16, 1.000000000000000000 ) ) ;
#176 = ORIENTED_EDGE ( 'NONE', *, *, #228, .T. ) ;
#177 = EDGE_CURVE ( 'NONE', #258, #445, #820, .T. ) ;
#178 = VERTEX_POINT ( 'NONE', #1041 ) ;
#179 = DIRECTION ( 'NONE',  ( 0.000000000000000000, 0.1474463411460739115, -0.9890700564078539481 ) ) ;
#180 = ORIENTED_EDGE ( 'NONE', *, *, #977, .T. ) ;
#181 = CARTESIAN_POINT ( 'NONE',  ( 1.653273178848920396E-17, 0.1349999999999994538, 0.1805999999999998440 ) ) ;
#182 = ORIENTED_EDGE ( 'NONE', *, *, #270, .F. ) ;
#183 = CARTESIAN_POINT ( 'NONE',  ( 0.03999999999999997308, -7.202394518782261894E-17, -0.6449999999999999067 ) ) ;
#184 = VECTOR ( 'NONE', #467, 39.37007874015748143 ) ;
#185 = CARTESIAN_POINT ( 'NONE',  ( 0.000000000000000000, 0.08749999999999973077, 0.3870000000000017315 ) ) ;
#186 = AXIS2_PLACEMENT_3D ( 'NONE', #232, #339, #223 ) ;
#187 = CARTESIAN_POINT ( 'NONE',  ( 0.3865742935102021716, -0.03091089996227629200, 0.05213618576166426793 ) ) ;
#188 = ORIENTED_EDGE ( 'NONE', *, *, #723, .T. ) ;
#189 = DIRECTION ( 'NONE',  ( 0.000000000000000000, -1.000000000000000000, 0.000000000000000000 ) ) ;
#190 = AXIS2_PLACEMENT_3D ( 'NONE', #154, #485, #257 ) ;
#191 = CARTESIAN_POINT ( 'NONE',  ( 0.000000000000000000, -1.070877555314446125E-16, -0.3869999999999998441 ) ) ;
#192 = CARTESIAN_POINT ( 'NONE',  ( 4.623041666781258597E-17, 0.3774999999999999467, 0.1031999999999998613 ) ) ;
#193 = EDGE_CURVE ( 'NONE', #275, #1157, #36, .T. ) ;
#194 = DATE_AND_TIME ( #700, #8 ) ;
#195 = CARTESIAN_POINT ( 'NONE',  ( 0.3874999999889000013, 2.933004260273500493E-06, 2.735586639785952591E-06 ) ) ;
#196 = ORIENTED_EDGE ( 'NONE', *, *, #87, .T. ) ;
#197 = DIRECTION ( 'NONE',  ( 0.000000000000000000, 1.000000000000000000, 0.000000000000000000 ) ) ;
#198 = CARTESIAN_POINT ( 'NONE',  ( 0.000000000000000000, -0.3775000000000000577, 0.1031999999999997503 ) ) ;
#199 = CYLINDRICAL_SURFACE ( 'NONE', #1161, 0.07249999999999952316 ) ;
#200 = VERTEX_POINT ( 'NONE', #962 ) ;
#201 = CARTESIAN_POINT ( 'NONE',  ( 0.000000000000000000, 5.878272738465595129E-18, 0.5547000000000017472 ) ) ;
#202 = DIRECTION ( 'NONE',  ( -0.000000000000000000, 1.199596774661888198E-16, 1.000000000000000000 ) ) ;
#203 = DIRECTION ( 'NONE',  ( 0.000000000000000000, -1.000000000000000000, 0.000000000000000000 ) ) ;
#204 = AXIS2_PLACEMENT_3D ( 'NONE', #496, #208, #613 ) ;
#205 = LOCAL_TIME ( 13, 27, 23.00000000000000000, #1108 ) ;
#206 = MANIFOLD_SOLID_BREP ( 'Wrap1', #716 ) ;
#207 = EDGE_LOOP ( 'NONE', ( #963, #303 ) ) ;
#208 = DIRECTION ( 'NONE',  ( -0.000000000000000000, 1.199596774661888198E-16, 1.000000000000000000 ) ) ;
#209 = AXIS2_PLACEMENT_3D ( 'NONE', #324, #725, #1110 ) ;
#210 = DIRECTION ( 'NONE',  ( 0.000000000000000000, -1.199596774661888198E-16, -1.000000000000000000 ) ) ;
#211 = CIRCLE ( 'NONE', #586, 0.06250000000000012490 ) ;
#212 = CARTESIAN_POINT ( 'NONE',  ( 0.3748006401493039763, -0.04506362328610438728, 0.07820299421398962947 ) ) ;
#213 = APPLICATION_PROTOCOL_DEFINITION ( 'international standard', 'config_control_design', 1994, #35 ) ;
#214 = EDGE_CURVE ( 'NONE', #1237, #931, #882, .T. ) ;
#215 = CARTESIAN_POINT ( 'NONE',  ( 0.3774999999891864855, 2.857313827748747922E-06, 2.735586639785952591E-06 ) ) ;
#216 = EDGE_CURVE ( 'NONE', #954, #552, #52, .T. ) ;
#217 = ORIENTED_EDGE ( 'NONE', *, *, #76, .T. ) ;
#218 = APPROVAL_ROLE ( '' ) ;
#219 = DIRECTION ( 'NONE',  ( -0.000000000000000000, -0.000000000000000000, 1.000000000000000000 ) ) ;
#220 = CARTESIAN_POINT ( 'NONE',  ( 0.000000000000000000, 0.1956249999999995770, 0.1805999999999998717 ) ) ;
#221 = CARTESIAN_POINT ( 'NONE',  ( 1.071565949253935227E-17, 0.08749999999999999445, -0.3869999999999998441 ) ) ;
#222 = AXIS2_PLACEMENT_3D ( 'NONE', #1189, #296, #718 ) ;
#223 = DIRECTION ( 'NONE',  ( 1.000000000000000000, 0.000000000000000000, 0.000000000000000000 ) ) ;
#224 = FACE_OUTER_BOUND ( 'NONE', #548, .T. ) ;
#225 = AXIS2_PLACEMENT_3D ( 'NONE', #56, #547, #39 ) ;
#226 = DIRECTION ( 'NONE',  ( 0.000000000000000000, -1.199596774661888198E-16, -1.000000000000000000 ) ) ;
#227 = CC_DESIGN_DATE_AND_TIME_ASSIGNMENT ( #604, #1186, ( #459 ) ) ;
#228 = EDGE_CURVE ( 'NONE', #1267, #441, #1184, .T. ) ;
#229 = AXIS2_PLACEMENT_3D ( 'NONE', #815, #1094, #1191 ) ;
#230 = ADVANCED_FACE ( 'NONE', ( #869 ), #643, .T. ) ;
#231 = ORIENTED_EDGE ( 'NONE', *, *, #750, .F. ) ;
#232 = CARTESIAN_POINT ( 'NONE',  ( 0.000000000000000000, -7.202394518782261894E-17, 0.6449999999999999067 ) ) ;
#233 = FACE_BOUND ( 'NONE', #80, .T. ) ;
#234 = B_SPLINE_CURVE_WITH_KNOTS ( 'NONE', 3,
 ( #1037, #334, #1014, #448 ),
 .UNSPECIFIED., .F., .F.,
 ( 4, 4 ),
 ( 0.000000000000000000, 1.000000000000000000 ),
 .UNSPECIFIED. ) ;
#235 = CARTESIAN_POINT ( 'NONE',  ( 0.000000000000000000, -4.259743292562152423E-17, 0.1505999999999999006 ) ) ;
#236 = ORIENTED_EDGE ( 'NONE', *, *, #598, .T. ) ;
#237 = CARTESIAN_POINT ( 'NONE',  ( 0.000000000000000000, -6.325448938529924235E-17, -0.02160000000000011910 ) ) ;
#238 = ORIENTED_EDGE ( 'NONE', *, *, #214, .T. ) ;
#239 = CYLINDRICAL_SURFACE ( 'NONE', #660, 0.03999999999999997308 ) ;
#240 = EDGE_CURVE ( 'NONE', #200, #168, #561, .T. ) ;
#241 = LINE ( 'NONE', #544, #1134 ) ;
#242 = VERTEX_POINT ( 'NONE', #886 ) ;
#243 = AXIS2_PLACEMENT_3D ( 'NONE', #285, #680, #68 ) ;
#244 = CARTESIAN_POINT ( 'NONE',  ( 0.3783954883629076504, 0.01516954785322614449, 0.07819861285878504376 ) ) ;
#245 = AXIS2_PLACEMENT_3D ( 'NONE', #235, #630, #426 ) ;
#246 = CIRCLE ( 'NONE', #1235, 0.3775000000000000022 ) ;
#247 = VECTOR ( 'NONE', #364, 39.37007874015748143 ) ;
#248 = ORIENTED_EDGE ( 'NONE', *, *, #1003, .F. ) ;
#249 = CARTESIAN_POINT ( 'NONE',  ( 0.3847282546750201981, 0.04626467393933295785, 0.07819642218118273702 ) ) ;
#250 = ADVANCED_FACE ( 'NONE', ( #782, #955 ), #1064, .F. ) ;
#251 = VERTEX_POINT ( 'NONE', #72 ) ;
#252 = DIRECTION ( 'NONE',  ( -1.000000000000000000, -0.000000000000000000, 0.000000000000000000 ) ) ;
#253 = ORIENTED_EDGE ( 'NONE', *, *, #625, .T. ) ;
#254 = CARTESIAN_POINT ( 'NONE',  ( 0.000000000000000000, -1.070877555314446125E-16, -0.3869999999999998441 ) ) ;
#255 = DIRECTION ( 'NONE',  ( 0.000000000000000000, -1.000000000000000000, -1.356878142548475020E-16 ) ) ;
#256 = EDGE_LOOP ( 'NONE', ( #413, #675 ) ) ;
#257 = DIRECTION ( 'NONE',  ( 0.000000000000000000, -1.000000000000000000, 1.199596774661888198E-16 ) ) ;
#258 = VERTEX_POINT ( 'NONE', #371 ) ;
#259 = DIRECTION ( 'NONE',  ( 1.000000000000000000, 0.000000000000000000, 0.000000000000000000 ) ) ;
#260 = EDGE_LOOP ( 'NONE', ( #753, #744, #749, #66 ) ) ;
#261 = LINE ( 'NONE', #369, #435 ) ;
#262 = ORIENTED_EDGE ( 'NONE', *, *, #978, .F. ) ;
#263 = ADVANCED_BREP_SHAPE_REPRESENTATION ( '47245K115_Check Valve', ( #206, #645, #920 ), #579 ) ;
#264 = CARTESIAN_POINT ( 'NONE',  ( 5.204748896376218035E-18, -0.04249999999999971162, 0.6249999999999998890 ) ) ;
#265 = AXIS2_PLACEMENT_3D ( 'NONE', #1156, #556, #271 ) ;
#266 = EDGE_LOOP ( 'NONE', ( #60, #71 ) ) ;
#267 = APPROVAL_PERSON_ORGANIZATION ( #987, #14, #218 ) ;
#268 = EDGE_CURVE ( 'NONE', #896, #666, #84, .T. ) ;
#269 = TOROIDAL_SURFACE ( 'NONE', #581, 0.1349999999999994815, 0.06249999999999997918 ) ;
#270 = EDGE_CURVE ( 'NONE', #1267, #639, #763, .T. ) ;
#271 = DIRECTION ( 'NONE',  ( 0.000000000000000000, -1.000000000000000000, 0.000000000000000000 ) ) ;
#272 = EDGE_LOOP ( 'NONE', ( #54, #1154, #1170 ) ) ;
#273 = CARTESIAN_POINT ( 'NONE',  ( 0.000000000000000000, -3.899864260163586210E-17, 0.1805999999999998995 ) ) ;
#274 = VECTOR ( 'NONE', #913, 39.37007874015748143 ) ;
#275 = VERTEX_POINT ( 'NONE', #580 ) ;
#276 = DIRECTION ( 'NONE',  ( 0.000000000000000000, -1.000000000000000000, -1.356878142548475267E-16 ) ) ;
#277 = ORIENTED_EDGE ( 'NONE', *, *, #535, .F. ) ;
#278 = DIRECTION ( 'NONE',  ( 0.000000000000000000, -1.199596774661888198E-16, -1.000000000000000000 ) ) ;
#279 = ORIENTED_EDGE ( 'NONE', *, *, #851, .T. ) ;
#280 = CARTESIAN_POINT ( 'NONE',  ( 0.3748006401493039763, -0.04506362328610438728, 0.07820299421398962947 ) ) ;
#281 = ORIENTED_EDGE ( 'NONE', *, *, #1192, .T. ) ;
#282 = DIRECTION ( 'NONE',  ( 0.000000000000000000, -1.356878142548475267E-16, 1.000000000000000000 ) ) ;
#283 = ORIENTED_EDGE ( 'NONE', *, *, #649, .T. ) ;
#284 = CARTESIAN_POINT ( 'NONE',  ( 0.03999999999999997308, -7.202394518782261894E-17, 0.6449999999999999067 ) ) ;
#285 = CARTESIAN_POINT ( 'NONE',  ( 0.000000000000000000, 1.671063161366223189E-17, 0.6449999999999999067 ) ) ;
#286 = PERSON ( 'UNSPECIFIED', 'UNSPECIFIED', 'UNSPECIFIED', ('UNSPECIFIED'), ('UNSPECIFIED'), ('UNSPECIFIED') ) ;
#287 = DIRECTION ( 'NONE',  ( -1.224646799147352221E-16, 1.000000000000000000, 0.000000000000000000 ) ) ;
#288 = ORIENTED_EDGE ( 'NONE', *, *, #664, .T. ) ;
#289 = FACE_OUTER_BOUND ( 'NONE', #1245, .T. ) ;
#290 = EDGE_CURVE ( 'NONE', #668, #661, #1169, .T. ) ;
#291 = ADVANCED_FACE ( 'NONE', ( #1139 ), #1162, .T. ) ;
#292 = LINE ( 'NONE', #899, #1020 ) ;
#293 = AXIS2_PLACEMENT_3D ( 'NONE', #671, #883, #1265 ) ;
#294 = DIRECTION ( 'NONE',  ( -1.000000000000000000, 0.000000000000000000, -0.000000000000000000 ) ) ;
#295 = EDGE_LOOP ( 'NONE', ( #592, #347, #1129, #432 ) ) ;
#296 = DIRECTION ( 'NONE',  ( -0.000000000000000000, 1.199596774661888198E-16, 1.000000000000000000 ) ) ;
#297 = AXIS2_PLACEMENT_3D ( 'NONE', #998, #410, #679 ) ;
#298 = CONICAL_SURFACE ( 'NONE', #131, 0.06250000000000012490, 0.1479858941958359930 ) ;
#299 = DIRECTION ( 'NONE',  ( 0.000000000000000000, -1.000000000000000000, 0.000000000000000000 ) ) ;
#300 = DIRECTION ( 'NONE',  ( -0.000000000000000000, 1.199596774661888198E-16, 1.000000000000000000 ) ) ;
#301 = COORDINATED_UNIVERSAL_TIME_OFFSET ( 6, 0, .BEHIND. ) ;
#302 = CARTESIAN_POINT ( 'NONE',  ( 4.255647627037051600E-17, -0.3475000000000000311, 0.1505999999999999284 ) ) ;
#303 = ORIENTED_EDGE ( 'NONE', *, *, #553, .T. ) ;
#304 = CARTESIAN_POINT ( 'NONE',  ( 4.623041666781258597E-17, 0.3774999999999999467, -0.02160000000000016768 ) ) ;
#305 = DIRECTION ( 'NONE',  ( -0.000000000000000000, 1.199596774661888198E-16, 1.000000000000000000 ) ) ;
#306 = CARTESIAN_POINT ( 'NONE',  ( 6.429395695523616294E-18, 0.04249999999999996836, -0.6449999999999999067 ) ) ;
#307 = EDGE_CURVE ( 'NONE', #1246, #800, #979, .T. ) ;
#308 = PERSON_AND_ORGANIZATION ( #286, #346 ) ;
#309 = ORIENTED_EDGE ( 'NONE', *, *, #1209, .F. ) ;
#310 = FACE_OUTER_BOUND ( 'NONE', #693, .T. ) ;
#311 = DIRECTION ( 'NONE',  ( -0.000000000000000000, 1.199596774661888198E-16, 1.000000000000000000 ) ) ;
#312 = DIRECTION ( 'NONE',  ( -0.000000000000000000, 1.199596774661888198E-16, 1.000000000000000000 ) ) ;
#313 = EDGE_CURVE ( 'NONE', #381, #911, #33, .T. ) ;
#314 = CALENDAR_DATE ( 2026, 24, 8 ) ;
#315 = ADVANCED_FACE ( 'NONE', ( #1146, #1071 ), #94, .F. ) ;
#316 = CARTESIAN_POINT ( 'NONE',  ( 0.03999999999999997308, -7.202394518782261894E-17, -0.6449999999999999067 ) ) ;
#317 = FACE_BOUND ( 'NONE', #938, .T. ) ;
#318 = CIRCLE ( 'NONE', #186, 0.03999999999999997308 ) ;
#319 = DIRECTION ( 'NONE',  ( 0.000000000000000000, 1.000000000000000000, 0.000000000000000000 ) ) ;
#320 = AXIS2_PLACEMENT_3D ( 'NONE', #611, #893, #1185 ) ;
#321 = ORIENTED_EDGE ( 'NONE', *, *, #1208, .F. ) ;
#322 = PERSON_AND_ORGANIZATION_ROLE ( 'design_supplier' ) ;
#323 = CARTESIAN_POINT ( 'NONE',  ( 0.000000000000000000, -1.356381587683975501E-16, -0.6249999999999998890 ) ) ;
#324 = CARTESIAN_POINT ( 'NONE',  ( 0.000000000000000000, 1.671063161366223189E-17, 0.6449999999999999067 ) ) ;
#325 = LINE ( 'NONE', #40, #748 ) ;
#326 = EDGE_CURVE ( 'NONE', #1140, #708, #921, .T. ) ;
#327 = FACE_BOUND ( 'NONE', #272, .T. ) ;
#328 = CC_DESIGN_PERSON_AND_ORGANIZATION_ASSIGNMENT ( #817, #412, ( #459 ) ) ;
#329 = CARTESIAN_POINT ( 'NONE',  ( 0.000000000000000000, -1.380373523177213167E-16, -0.6449999999999999067 ) ) ;
#330 = CIRCLE ( 'NONE', #6, 0.02999999999999998848 ) ;
#331 = CARTESIAN_POINT ( 'NONE',  ( 0.3865742935102021716, -0.03091089996227629200, 0.05213618576166426793 ) ) ;
#332 = FACE_OUTER_BOUND ( 'NONE', #456, .T. ) ;
#333 = CIRCLE ( 'NONE', #91, 0.07249999999999952316 ) ;
#334 = CARTESIAN_POINT ( 'NONE',  ( 0.3865737648935045345, 0.03091776095182424688, 0.05213182080227125176 ) ) ;
#335 = AXIS2_PLACEMENT_3D ( 'NONE', #25, #305, #415 ) ;
#336 = LINE ( 'NONE', #834, #501 ) ;
#337 = ORIENTED_EDGE ( 'NONE', *, *, #790, .T. ) ;
#338 = DIRECTION ( 'NONE',  ( 0.000000000000000000, -1.000000000000000000, 0.000000000000000000 ) ) ;
#339 = DIRECTION ( 'NONE',  ( 0.000000000000000000, 0.000000000000000000, 1.000000000000000000 ) ) ;
#340 = B_SPLINE_CURVE_WITH_KNOTS ( 'NONE', 1,
 ( #1126, #1022 ),
 .UNSPECIFIED., .F., .F.,
 ( 2, 2 ),
 ( 0.000000000000000000, 1.000000000000000000 ),
 .UNSPECIFIED. ) ;
#341 = AXIS2_PLACEMENT_3D ( 'NONE', #644, #377, #1167 ) ;
#342 = ORIENTED_EDGE ( 'NONE', *, *, #409, .F. ) ;
#343 = FACE_OUTER_BOUND ( 'NONE', #858, .T. ) ;
#344 = EDGE_CURVE ( 'NONE', #786, #559, #391, .T. ) ;
#345 = DIRECTION ( 'NONE',  ( 1.224646799147353454E-16, 1.000000000000000000, 0.000000000000000000 ) ) ;
#346 = ORGANIZATION ( 'UNSPECIFIED', 'UNSPECIFIED', '' ) ;
#347 = ORIENTED_EDGE ( 'NONE', *, *, #810, .T. ) ;
#348 = CC_DESIGN_APPROVAL ( #555, ( #459 ) ) ;
#349 = DIRECTION ( 'NONE',  ( 0.000000000000000000, 0.000000000000000000, 1.000000000000000000 ) ) ;
#350 = CIRCLE ( 'NONE', #737, 0.06250000000000009714 ) ;
#351 = ORIENTED_EDGE ( 'NONE', *, *, #664, .F. ) ;
#352 = CIRCLE ( 'NONE', #335, 0.06250000000000012490 ) ;
#353 = CIRCLE ( 'NONE', #524, 0.03999999999999997308 ) ;
#354 = EDGE_LOOP ( 'NONE', ( #86, #309, #58, #762 ) ) ;
#355 = CARTESIAN_POINT ( 'NONE',  ( 0.3884198472598192065, -0.01556116772663309472, 0.07820080333368652215 ) ) ;
#356 = ORIENTED_EDGE ( 'NONE', *, *, #907, .T. ) ;
#357 = DIRECTION ( 'NONE',  ( 0.000000000000000000, -1.000000000000000000, 0.000000000000000000 ) ) ;
#358 = ORIENTED_EDGE ( 'NONE', *, *, #27, .T. ) ;
#359 = CARTESIAN_POINT ( 'NONE',  ( 0.000000000000000000, -7.202394518782261894E-17, -0.6449999999999999067 ) ) ;
#360 = ORIENTED_EDGE ( 'NONE', *, *, #844, .F. ) ;
#361 = LINE ( 'NONE', #1252, #171 ) ;
#362 = ORIENTED_EDGE ( 'NONE', *, *, #578, .T. ) ;
#363 = EDGE_CURVE ( 'NONE', #668, #165, #352, .T. ) ;
#364 = DIRECTION ( 'NONE',  ( 0.000000000000000000, -0.1474463411460721352, 0.9890700564078543922 ) ) ;
#365 = VERTEX_POINT ( 'NONE', #198 ) ;
#366 = EDGE_CURVE ( 'NONE', #956, #536, #1057, .T. ) ;
#367 = CYLINDRICAL_SURFACE ( 'NONE', #1030, 0.3775000000000000022 ) ;
#368 = ORIENTED_EDGE ( 'NONE', *, *, #366, .T. ) ;
#369 = CARTESIAN_POINT ( 'NONE',  ( 8.878689293818247951E-18, 0.07249999999999949540, 0.6449999999999999067 ) ) ;
#370 = EDGE_LOOP ( 'NONE', ( #1061, #321, #461, #868 ) ) ;
#371 = CARTESIAN_POINT ( 'NONE',  ( 0.000000000000000000, -0.3775000000000000577, 0.1031999999999997503 ) ) ;
#372 = AXIS2_PLACEMENT_3D ( 'NONE', #988, #1179, #493 ) ;
#373 = EDGE_LOOP ( 'NONE', ( #1065, #702 ) ) ;
#374 = AXIS2_PLACEMENT_3D ( 'NONE', #1109, #1124, #1221 ) ;
#375 = LINE ( 'NONE', #164, #184 ) ;
#376 = ORIENTED_EDGE ( 'NONE', *, *, #715, .F. ) ;
#377 = DIRECTION ( 'NONE',  ( -0.000000000000000000, 1.199596774661888198E-16, 1.000000000000000000 ) ) ;
#378 = TOROIDAL_SURFACE ( 'NONE', #1036, 0.3474999999999999756, 0.02999999999999999889 ) ;
#379 = ORIENTED_EDGE ( 'NONE', *, *, #944, .T. ) ;
#380 = CARTESIAN_POINT ( 'NONE',  ( 2.395715300832005793E-17, 0.1956249999999995770, -0.1747250000000002412 ) ) ;
#381 = VERTEX_POINT ( 'NONE', #787 ) ;
#382 = ADVANCED_FACE ( 'NONE', ( #610 ), #594, .T. ) ;
#383 = CARTESIAN_POINT ( 'NONE',  ( 0.000000000000000000, 1.671063161366223189E-17, 0.6449999999999999067 ) ) ;
#384 = DIRECTION ( 'NONE',  ( 0.000000000000000000, -1.000000000000000000, 0.000000000000000000 ) ) ;
#385 = ADVANCED_FACE ( 'NONE', ( #123 ), #70, .T. ) ;
#386 = ORIENTED_EDGE ( 'NONE', *, *, #775, .T. ) ;
#387 = CARTESIAN_POINT ( 'NONE',  ( 0.3765976648060301857, 0.03011990760628743824, 0.05213186326410262916 ) ) ;
#388 = DIRECTION ( 'NONE',  ( 0.000000000000000000, 1.000000000000000000, -1.199596774661888198E-16 ) ) ;
#389 = DIRECTION ( 'NONE',  ( -0.000000000000000000, 1.199596774661888198E-16, 1.000000000000000000 ) ) ;
#390 = VERTEX_POINT ( 'NONE', #1099 ) ;
#391 = B_SPLINE_CURVE_WITH_KNOTS ( 'NONE', 3,
 ( #15, #1080, #393, #1183 ),
 .UNSPECIFIED., .F., .F.,
 ( 4, 4 ),
 ( 0.000000000000000000, 1.000000000000000000 ),
 .UNSPECIFIED. ) ;
#392 = DIRECTION ( 'NONE',  ( 0.000000000000000000, -1.199596774661888198E-16, -1.000000000000000000 ) ) ;
#393 = CARTESIAN_POINT ( 'NONE',  ( 0.3884195514286698514, 0.01556855016719872059, 0.07819861306148584434 ) ) ;
#394 = VECTOR ( 'NONE', #488, 39.37007874015748143 ) ;
#395 = DIRECTION ( 'NONE',  ( 0.000000000000000000, -1.000000000000000000, 0.000000000000000000 ) ) ;
#396 = PERSON_AND_ORGANIZATION ( #286, #346 ) ;
#397 = AXIS2_PLACEMENT_3D ( 'NONE', #273, #657, #846 ) ;
#398 = CIRCLE ( 'NONE', #562, 0.04250000000000010020 ) ;
#399 = CARTESIAN_POINT ( 'NONE',  ( 0.3875001169834277892, -0.01545404404094939850, 0.02606952435309851934 ) ) ;
#400 = ORIENTED_EDGE ( 'NONE', *, *, #790, .F. ) ;
#401 = DIRECTION ( 'NONE',  ( -0.000000000000000000, 1.199596774661888198E-16, 1.000000000000000000 ) ) ;
#402 = AXIS2_PLACEMENT_3D ( 'NONE', #495, #300, #688 ) ;
#403 = CARTESIAN_POINT ( 'NONE',  ( 0.000000000000000000, 1.431143806433844995E-17, 0.6249999999999998890 ) ) ;
#404 = DIRECTION ( 'NONE',  ( -0.000000000000000000, 1.199596774661888198E-16, 1.000000000000000000 ) ) ;
#405 = APPROVAL_ROLE ( '' ) ;
#406 = ORIENTED_EDGE ( 'NONE', *, *, #916, .T. ) ;
#407 = CARTESIAN_POINT ( 'NONE',  ( 0.000000000000000000, -1.423896517261427198E-17, 0.3870000000000017315 ) ) ;
#408 = CARTESIAN_POINT ( 'NONE',  ( 0.000000000000000000, -3.899864260163586827E-17, 0.1805999999999998440 ) ) ;
#409 = EDGE_CURVE ( 'NONE', #63, #911, #704, .T. ) ;
#410 = DIRECTION ( 'NONE',  ( 0.000000000000000000, 0.000000000000000000, 1.000000000000000000 ) ) ;
#411 = ADVANCED_FACE ( 'NONE', ( #114, #984 ), #615, .F. ) ;
#412 = PERSON_AND_ORGANIZATION_ROLE ( 'creator' ) ;
#413 = ORIENTED_EDGE ( 'NONE', *, *, #151, .T. ) ;
#414 = CYLINDRICAL_SURFACE ( 'NONE', #65, 0.06249999999999972938 ) ;
#415 = DIRECTION ( 'NONE',  ( 0.000000000000000000, -1.000000000000000000, 0.000000000000000000 ) ) ;
#416 = CARTESIAN_POINT ( 'NONE',  ( 7.654042494670972952E-18, 0.06249999999999999306, -0.5546999999999999709 ) ) ;
#417 = AXIS2_PLACEMENT_3D ( 'NONE', #792, #401, #983 ) ;
#418 = COORDINATED_UNIVERSAL_TIME_OFFSET ( 6, 0, .BEHIND. ) ;
#419 = AXIS2_PLACEMENT_3D ( 'NONE', #1118, #628, #44 ) ;
#420 = CARTESIAN_POINT ( 'NONE',  ( 0.000000000000000000, 1.671063161366223189E-17, 0.6449999999999999067 ) ) ;
#421 = FACE_OUTER_BOUND ( 'NONE', #635, .T. ) ;
#422 = AXIS2_PLACEMENT_3D ( 'NONE', #380, #677, #567 ) ;
#423 = EDGE_CURVE ( 'NONE', #441, #800, #1004, .T. ) ;
#424 = DIRECTION ( 'NONE',  ( 0.000000000000000000, -1.000000000000000000, 0.000000000000000000 ) ) ;
#425 = FACE_OUTER_BOUND ( 'NONE', #1240, .T. ) ;
#426 = DIRECTION ( 'NONE',  ( 0.000000000000000000, 1.000000000000000000, -1.356878142548475020E-16 ) ) ;
#427 = CARTESIAN_POINT ( 'NONE',  ( 0.000000000000000000, -7.202394518782261894E-17, -0.6449999999999999067 ) ) ;
#428 = FACE_BOUND ( 'NONE', #256, .T. ) ;
#429 = AXIS2_PLACEMENT_3D ( 'NONE', #302, #895, #287 ) ;
#430 = EDGE_LOOP ( 'NONE', ( #742, #1160, #569, #791 ) ) ;
#431 = DIRECTION ( 'NONE',  ( -0.000000000000000000, 1.356878142548475267E-16, -1.000000000000000000 ) ) ;
#432 = ORIENTED_EDGE ( 'NONE', *, *, #27, .F. ) ;
#433 = AXIS2_PLACEMENT_3D ( 'NONE', #427, #823, #1211 ) ;
#434 = ADVANCED_FACE ( 'NONE', ( #1203 ), #1243, .T. ) ;
#435 = VECTOR ( 'NONE', #1054, 39.37007874015748143 ) ;
#436 = CLOSED_SHELL ( 'NONE', ( #1225, #506, #1264, #434, #1241, #385, #736, #662, #250, #1079, #1144, #1122, #1145, #1095, #102, #173, #494, #479, #124, #464 ) ) ;
#437 = FACE_OUTER_BOUND ( 'NONE', #92, .T. ) ;
#438 = AXIS2_PLACEMENT_3D ( 'NONE', #508, #312, #603 ) ;
#439 = EDGE_CURVE ( 'NONE', #168, #891, #353, .T. ) ;
#440 = FACE_OUTER_BOUND ( 'NONE', #767, .T. ) ;
#441 = VERTEX_POINT ( 'NONE', #794 ) ;
#442 = CARTESIAN_POINT ( 'NONE',  ( 0.000000000000000000, 1.431143806433844687E-17, 0.6249999999999998890 ) ) ;
#443 = ADVANCED_FACE ( 'NONE', ( #516 ), #298, .T. ) ;
#444 = EDGE_CURVE ( 'NONE', #661, #658, #692, .T. ) ;
#445 = VERTEX_POINT ( 'NONE', #1089 ) ;
#446 = DIRECTION ( 'NONE',  ( -0.000000000000000000, 1.199596774661888198E-16, 1.000000000000000000 ) ) ;
#447 = EDGE_LOOP ( 'NONE', ( #1023, #73, #362, #958 ) ) ;
#448 = CARTESIAN_POINT ( 'NONE',  ( 0.3874999999889000013, 2.933004260273500493E-06, 2.735586639785952591E-06 ) ) ;
#449 = ORIENTED_EDGE ( 'NONE', *, *, #1111, .T. ) ;
#450 = ORIENTED_EDGE ( 'NONE', *, *, #777, .T. ) ;
#451 = DIRECTION ( 'NONE',  ( 0.000000000000000000, -1.356878142548475267E-16, 1.000000000000000000 ) ) ;
#452 = AXIS2_PLACEMENT_3D ( 'NONE', #888, #278, #574 ) ;
#453 = EDGE_LOOP ( 'NONE', ( #1234, #648, #1056, #1258 ) ) ;
#454 = CARTESIAN_POINT ( 'NONE',  ( -0.3778937007874015874, 0.3774999999999999467, 0.1031999999999999029 ) ) ;
#455 = AXIS2_PLACEMENT_3D ( 'NONE', #220, #133, #522 ) ;
#456 = EDGE_LOOP ( 'NONE', ( #1067, #587, #1135, #231 ) ) ;
#457 = AXIS2_PLACEMENT_3D ( 'NONE', #26, #909, #992 ) ;
#458 = LINE ( 'NONE', #185, #498 ) ;
#459 = PRODUCT_DEFINITION ( 'UNKNOWN', '', #934, #642 ) ;
#460 = EDGE_CURVE ( 'NONE', #63, #627, #292, .T. ) ;
#461 = ORIENTED_EDGE ( 'NONE', *, *, #193, .T. ) ;
#462 = FACE_OUTER_BOUND ( 'NONE', #147, .T. ) ;
#463 = ORIENTED_EDGE ( 'NONE', *, *, #34, .F. ) ;
#464 = ADVANCED_FACE ( 'NONE', ( #589 ), #754, .T. ) ;
#465 = CARTESIAN_POINT ( 'NONE',  ( 0.000000000000000000, -0.3475000000000000311, -0.02160000000000007747 ) ) ;
#466 = EDGE_LOOP ( 'NONE', ( #947, #1188, #568, #968 ) ) ;
#467 = DIRECTION ( 'NONE',  ( -0.000000000000000000, 1.199596774661888198E-16, 1.000000000000000000 ) ) ;
#468 = EDGE_LOOP ( 'NONE', ( #1229, #616, #964, #188 ) ) ;
#469 = DIRECTION ( 'NONE',  ( 1.000000000000000000, -1.224646799147353207E-16, 1.469082350357170050E-32 ) ) ;
#470 = ORIENTED_EDGE ( 'NONE', *, *, #216, .T. ) ;
#471 = DIRECTION ( 'NONE',  ( 1.000000000000000000, 0.000000000000000000, 0.000000000000000000 ) ) ;
#472 = ORIENTED_EDGE ( 'NONE', *, *, #290, .F. ) ;
#473 = CARTESIAN_POINT ( 'NONE',  ( 0.000000000000000000, 0.000000000000000000, 0.000000000000000000 ) ) ;
#474 = ORIENTED_EDGE ( 'NONE', *, *, #1242, .F. ) ;
#475 = CARTESIAN_POINT ( 'NONE',  ( 0.3847291339280934919, -0.04625736165129919891, 0.07820299421398962947 ) ) ;
#476 = ORIENTED_EDGE ( 'NONE', *, *, #270, .T. ) ;
#477 = CARTESIAN_POINT ( 'NONE',  ( 0.000000000000000000, -6.325448938529924235E-17, -0.02160000000000011910 ) ) ;
#478 = ORIENTED_EDGE ( 'NONE', *, *, #268, .F. ) ;
#479 = ADVANCED_FACE ( 'NONE', ( #491 ), #129, .F. ) ;
#480 = AXIS2_PLACEMENT_3D ( 'NONE', #507, #20, #618 ) ;
#481 = CARTESIAN_POINT ( 'NONE',  ( 0.000000000000000000, -0.1956249999999997435, -0.05160000000000004167 ) ) ;
#482 = DIRECTION ( 'NONE',  ( -0.000000000000000000, 1.199596774661888198E-16, 1.000000000000000000 ) ) ;
#483 = AXIS2_PLACEMENT_3D ( 'NONE', #976, #1268, #78 ) ;
#484 = ORIENTED_EDGE ( 'NONE', *, *, #672, .T. ) ;
#485 = DIRECTION ( 'NONE',  ( -0.000000000000000000, 1.199596774661888198E-16, 1.000000000000000000 ) ) ;
#486 = EDGE_CURVE ( 'NONE', #178, #911, #795, .T. ) ;
#487 = DIRECTION ( 'NONE',  ( 0.000000000000000000, -1.199596774661888198E-16, -1.000000000000000000 ) ) ;
#488 = DIRECTION ( 'NONE',  ( -0.000000000000000000, 1.199596774661888198E-16, 1.000000000000000000 ) ) ;
#489 = ORIENTED_EDGE ( 'NONE', *, *, #240, .F. ) ;
#490 = CARTESIAN_POINT ( 'NONE',  ( 0.000000000000000000, 0.3474999999999999201, 0.1805999999999998717 ) ) ;
#491 = FACE_OUTER_BOUND ( 'NONE', #354, .T. ) ;
#492 = CARTESIAN_POINT ( 'NONE',  ( 0.000000000000000000, -1.272049934425244665E-16, -0.5546999999999999709 ) ) ;
#493 = DIRECTION ( 'NONE',  ( 0.000000000000000000, -1.000000000000000000, 0.000000000000000000 ) ) ;
#494 = ADVANCED_FACE ( 'NONE', ( #923, #623 ), #527, .F. ) ;
#495 = CARTESIAN_POINT ( 'NONE',  ( 0.000000000000000000, 1.671063161366223497E-17, 0.6449999999999999067 ) ) ;
#496 = CARTESIAN_POINT ( 'NONE',  ( 0.000000000000000000, -1.272049934425244665E-16, -0.5546999999999999709 ) ) ;
#497 = CARTESIAN_POINT ( 'NONE',  ( 0.000000000000000000, -1.423896517261427198E-17, 0.3870000000000017315 ) ) ;
#498 = VECTOR ( 'NONE', #179, 39.37007874015748143 ) ;
#499 = CYLINDRICAL_SURFACE ( 'NONE', #609, 0.07249999999999946765 ) ;
#500 = PERSON_AND_ORGANIZATION_ROLE ( 'classification_officer' ) ;
#501 = VECTOR ( 'NONE', #1011, 39.37007874015748143 ) ;
#502 = ADVANCED_FACE ( 'NONE', ( #224, #233 ), #38, .T. ) ;
#503 = ORIENTED_EDGE ( 'NONE', *, *, #535, .T. ) ;
#504 = DIRECTION ( 'NONE',  ( -0.000000000000000000, 1.199596774661888198E-16, 1.000000000000000000 ) ) ;
#505 = AXIS2_PLACEMENT_3D ( 'NONE', #1196, #311, #1190 ) ;
#506 = ADVANCED_FACE ( 'NONE', ( #425 ), #1021, .F. ) ;
#507 = CARTESIAN_POINT ( 'NONE',  ( 0.000000000000000000, -3.414809992080329023E-17, 0.2430999999999998717 ) ) ;
#508 = CARTESIAN_POINT ( 'NONE',  ( 0.000000000000000000, -1.024442997624098707E-16, -0.1747250000000002135 ) ) ;
#509 = ORIENTED_EDGE ( 'NONE', *, *, #1034, .F. ) ;
#510 = DIRECTION ( 'NONE',  ( 0.000000000000000000, -1.356878142548475267E-16, 1.000000000000000000 ) ) ;
#511 = CARTESIAN_POINT ( 'NONE',  ( 8.878689293818252574E-18, 0.07249999999999953704, 0.6449999999999999067 ) ) ;
#512 = CARTESIAN_POINT ( 'NONE',  ( 0.000000000000000000, 1.671063161366223189E-17, 0.6449999999999999067 ) ) ;
#513 = DATE_AND_TIME ( #706, #771 ) ;
#514 = AXIS2_PLACEMENT_3D ( 'NONE', #1136, #768, #867 ) ;
#515 = FACE_OUTER_BOUND ( 'NONE', #885, .T. ) ;
#516 = FACE_OUTER_BOUND ( 'NONE', #970, .T. ) ;
#517 = EDGE_CURVE ( 'NONE', #441, #1267, #113, .T. ) ;
#518 = AXIS2_PLACEMENT_3D ( 'NONE', #918, #119, #897 ) ;
#519 = ADVANCED_FACE ( 'NONE', ( #327, #332 ), #128, .T. ) ;
#520 = CIRCLE ( 'NONE', #1182, 0.06250000000000009714 ) ;
#521 = CARTESIAN_POINT ( 'NONE',  ( 0.000000000000000000, -0.06250000000000024980, -0.5546999999999999709 ) ) ;
#522 = DIRECTION ( 'NONE',  ( 0.000000000000000000, 1.000000000000000000, -1.199596774661888198E-16 ) ) ;
#523 = AXIS2_PLACEMENT_3D ( 'NONE', #512, #21, #705 ) ;
#524 = AXIS2_PLACEMENT_3D ( 'NONE', #1175, #1106, #1008 ) ;
#525 = DIRECTION ( 'NONE',  ( -0.000000000000000000, 1.199596774661888198E-16, 1.000000000000000000 ) ) ;
#526 = FACE_OUTER_BOUND ( 'NONE', #1042, .T. ) ;
#527 = PLANE ( 'NONE',  #455 ) ;
#528 = CARTESIAN_POINT ( 'NONE',  ( 0.000000000000000000, -1.356381587683975501E-16, -0.6249999999999998890 ) ) ;
#529 = ADVANCED_FACE ( 'NONE', ( #421 ), #821, .T. ) ;
#530 = CARTESIAN_POINT ( 'NONE',  ( 0.000000000000000000, -4.828352163751888445E-17, 0.1031999999999998058 ) ) ;
#531 = ORIENTED_EDGE ( 'NONE', *, *, #1192, .F. ) ;
#532 = CARTESIAN_POINT ( 'NONE',  ( 0.000000000000000000, -0.08750000000000018874, -0.3869999999999998441 ) ) ;
#533 = AXIS2_PLACEMENT_3D ( 'NONE', #1266, #389, #384 ) ;
#534 = DIRECTION ( 'NONE',  ( 0.000000000000000000, -1.000000000000000000, 1.199596774661888198E-16 ) ) ;
#535 = EDGE_CURVE ( 'NONE', #82, #1237, #1016, .T. ) ;
#536 = VERTEX_POINT ( 'NONE', #641 ) ;
#537 = AXIS2_PLACEMENT_3D ( 'NONE', #1216, #1113, #41 ) ;
#538 = ADVANCED_FACE ( 'NONE', ( #831 ), #239, .F. ) ;
#539 = DIRECTION ( 'NONE',  ( -0.000000000000000000, -0.000000000000000000, 1.000000000000000000 ) ) ;
#540 = B_SPLINE_CURVE_WITH_KNOTS ( 'NONE', 1,
 ( #761, #557 ),
 .UNSPECIFIED., .F., .F.,
 ( 2, 2 ),
 ( 0.000000000000000000, 1.000000000000000000 ),
 .UNSPECIFIED. ) ;
#541 = CIRCLE ( 'NONE', #1082, 0.02000000000000005940 ) ;
#542 = EDGE_CURVE ( 'NONE', #931, #607, #520, .T. ) ;
#543 = EDGE_LOOP ( 'NONE', ( #865, #632 ) ) ;
#544 = CARTESIAN_POINT ( 'NONE',  ( 4.623041666781258597E-17, 0.3775000000000000022, 0.6449999999999999067 ) ) ;
#545 = ORIENTED_EDGE ( 'NONE', *, *, #460, .F. ) ;
#546 = B_SPLINE_CURVE_WITH_KNOTS ( 'NONE', 3,
 ( #215, #19, #1097, #24 ),
 .UNSPECIFIED., .F., .F.,
 ( 4, 4 ),
 ( 0.000000000000000000, 1.000000000000000000 ),
 .UNSPECIFIED. ) ;
#547 = DIRECTION ( 'NONE',  ( -0.000000000000000000, 1.199596774661888198E-16, 1.000000000000000000 ) ) ;
#548 = EDGE_LOOP ( 'NONE', ( #1047, #386 ) ) ;
#549 = CARTESIAN_POINT ( 'NONE',  ( 0.000000000000000000, -0.07249999999999945377, 0.6449999999999999067 ) ) ;
#550 = EDGE_LOOP ( 'NONE', ( #79, #783, #842, #682 ) ) ;
#551 = CARTESIAN_POINT ( 'NONE',  ( 0.000000000000000000, 1.671063161366223189E-17, 0.6449999999999999067 ) ) ;
#552 = VERTEX_POINT ( 'NONE', #745 ) ;
#553 = EDGE_CURVE ( 'NONE', #155, #275, #1204, .T. ) ;
#554 = EDGE_CURVE ( 'NONE', #870, #178, #1214, .T. ) ;
#555 = APPROVAL ( #811, 'UNSPECIFIED' ) ;
#556 = DIRECTION ( 'NONE',  ( -0.000000000000000000, 1.199596774661888198E-16, 1.000000000000000000 ) ) ;
#557 = CARTESIAN_POINT ( 'NONE',  ( 0.3847282546750202537, 0.04626467393933295785, 0.07819642218118273702 ) ) ;
#558 = AXIS2_PLACEMENT_3D ( 'NONE', #709, #122, #189 ) ;
#559 = VERTEX_POINT ( 'NONE', #636 ) ;
#560 = APPROVAL_PERSON_ORGANIZATION ( #1091, #555, #405 ) ;
#561 = LINE ( 'NONE', #183, #584 ) ;
#562 = AXIS2_PLACEMENT_3D ( 'NONE', #735, #849, #1120 ) ;
#563 = EDGE_LOOP ( 'NONE', ( #139, #1077, #1255 ) ) ;
#564 = EDGE_LOOP ( 'NONE', ( #217, #862 ) ) ;
#565 = CARTESIAN_POINT ( 'NONE',  ( 0.3747997835866325733, 0.04507074686993080975, 0.07819642218118273702 ) ) ;
#566 = ORIENTED_EDGE ( 'NONE', *, *, #1224, .T. ) ;
#567 = DIRECTION ( 'NONE',  ( 1.224646799147353207E-16, 1.000000000000000000, 0.000000000000000000 ) ) ;
#568 = ORIENTED_EDGE ( 'NONE', *, *, #633, .T. ) ;
#569 = ORIENTED_EDGE ( 'NONE', *, *, #344, .T. ) ;
#570 = CARTESIAN_POINT ( 'NONE',  ( -0.03999999999999997308, -6.712535799123320463E-17, 0.6449999999999999067 ) ) ;
#571 = ORIENTED_EDGE ( 'NONE', *, *, #553, .F. ) ;
#572 = CARTESIAN_POINT ( 'NONE',  ( 0.3774999999891864855, 2.857313827748747922E-06, 2.735586639785952591E-06 ) ) ;
#573 = ORIENTED_EDGE ( 'NONE', *, *, #1049, .T. ) ;
#574 = DIRECTION ( 'NONE',  ( 0.000000000000000000, 1.000000000000000000, -1.199596774661888198E-16 ) ) ;
#575 = EDGE_LOOP ( 'NONE', ( #1053, #760, #238, #1261 ) ) ;
#576 = CARTESIAN_POINT ( 'NONE',  ( 0.000000000000000000, 0.06249999999999948652, 0.5547000000000017472 ) ) ;
#577 = EDGE_LOOP ( 'NONE', ( #1205, #566 ) ) ;
#578 = EDGE_CURVE ( 'NONE', #666, #972, #340, .T. ) ;
#579 =( GEOMETRIC_REPRESENTATION_CONTEXT ( 3 ) GLOBAL_UNCERTAINTY_ASSIGNED_CONTEXT ( ( #1163 ) ) GLOBAL_UNIT_ASSIGNED_CONTEXT ( ( #96, #1060, #172 ) ) REPRESENTATION_CONTEXT ( 'NONE', 'WORKASPACE' ) );
#580 = CARTESIAN_POINT ( 'NONE',  ( 0.000000000000000000, -0.3475000000000000311, -0.05160000000000001391 ) ) ;
#581 = AXIS2_PLACEMENT_3D ( 'NONE', #922, #1024, #941 ) ;
#582 = CARTESIAN_POINT ( 'NONE',  ( 9.184850993605102523E-18, -0.06249999999999947264, 0.5547000000000017472 ) ) ;
#583 =( LENGTH_UNIT ( ) NAMED_UNIT ( * ) SI_UNIT ( $, .METRE. ) );
#584 = VECTOR ( 'NONE', #757, 39.37007874015748143 ) ;
#585 = DIRECTION ( 'NONE',  ( -0.000000000000000000, 1.199596774661888198E-16, 1.000000000000000000 ) ) ;
#586 = AXIS2_PLACEMENT_3D ( 'NONE', #492, #698, #395 ) ;
#587 = ORIENTED_EDGE ( 'NONE', *, *, #793, .T. ) ;
#588 = DIRECTION ( 'NONE',  ( 0.000000000000000000, -1.199596774661888198E-16, -1.000000000000000000 ) ) ;
#589 = FACE_OUTER_BOUND ( 'NONE', #550, .T. ) ;
#590 = FACE_OUTER_BOUND ( 'NONE', #174, .T. ) ;
#591 = DIRECTION ( 'NONE',  ( 1.224646799147352221E-16, 1.000000000000000000, 0.000000000000000000 ) ) ;
#592 = ORIENTED_EDGE ( 'NONE', *, *, #828, .F. ) ;
#593 = FACE_BOUND ( 'NONE', #373, .T. ) ;
#594 = CYLINDRICAL_SURFACE ( 'NONE', #505, 0.07249999999999952316 ) ;
#595 = CARTESIAN_POINT ( 'NONE',  ( 0.000000000000000000, 1.671063161366223189E-17, 0.6449999999999999067 ) ) ;
#596 = EDGE_CURVE ( 'NONE', #1028, #896, #1127, .T. ) ;
#597 = ADVANCED_FACE ( 'NONE', ( #437, #428 ), #924, .F. ) ;
#598 = EDGE_CURVE ( 'NONE', #911, #178, #953, .T. ) ;
#599 = LINE ( 'NONE', #316, #606 ) ;
#600 = CARTESIAN_POINT ( 'NONE',  ( 0.000000000000000000, -1.356381587683975501E-16, -0.6249999999999998890 ) ) ;
#601 = DIRECTION ( 'NONE',  ( 0.000000000000000000, -1.199596774661888198E-16, -1.000000000000000000 ) ) ;
#602 = CIRCLE ( 'NONE', #729, 0.3775000000000000022 ) ;
#603 = DIRECTION ( 'NONE',  ( 0.000000000000000000, -1.000000000000000000, 1.199596774661888198E-16 ) ) ;
#604 = DATE_AND_TIME ( #797, #687 ) ;
#605 = AXIS2_PLACEMENT_3D ( 'NONE', #237, #141, #534 ) ;
#606 = VECTOR ( 'NONE', #717, 39.37007874015748143 ) ;
#607 = VERTEX_POINT ( 'NONE', #837 ) ;
#608 = FACE_OUTER_BOUND ( 'NONE', #774, .T. ) ;
#609 = AXIS2_PLACEMENT_3D ( 'NONE', #17, #404, #203 ) ;
#610 = FACE_OUTER_BOUND ( 'NONE', #149, .T. ) ;
#611 = CARTESIAN_POINT ( 'NONE',  ( 0.000000000000000000, -3.899864260163586210E-17, 0.1805999999999998995 ) ) ;
#612 = DATE_TIME_ROLE ( 'classification_date' ) ;
#613 = DIRECTION ( 'NONE',  ( 0.000000000000000000, -1.000000000000000000, 0.000000000000000000 ) ) ;
#614 = ADVANCED_FACE ( 'NONE', ( #343 ), #59, .T. ) ;
#615 = PLANE ( 'NONE',  #836 ) ;
#616 = ORIENTED_EDGE ( 'NONE', *, *, #844, .T. ) ;
#617 = APPROVAL_STATUS ( 'not_yet_approved' ) ;
#618 = DIRECTION ( 'NONE',  ( 0.000000000000000000, -1.000000000000000000, 1.199596774661888198E-16 ) ) ;
#619 = FACE_OUTER_BOUND ( 'NONE', #74, .T. ) ;
#620 = B_SPLINE_CURVE_WITH_KNOTS ( 'NONE', 3,
 ( #937, #1215, #331, #732 ),
 .UNSPECIFIED., .F., .F.,
 ( 4, 4 ),
 ( 0.000000000000000000, 1.000000000000000000 ),
 .UNSPECIFIED. ) ;
#621 = AXIS2_PLACEMENT_3D ( 'NONE', #929, #226, #740 ) ;
#622 = DIRECTION ( 'NONE',  ( 0.000000000000000000, -1.000000000000000000, 0.000000000000000000 ) ) ;
#623 = FACE_BOUND ( 'NONE', #543, .T. ) ;
#624 = CARTESIAN_POINT ( 'NONE',  ( 7.654042494670923648E-18, 0.06249999999999974326, 0.6449999999999999067 ) ) ;
#625 = EDGE_CURVE ( 'NONE', #559, #972, #234, .T. ) ;
#626 = CIRCLE ( 'NONE', #804, 0.1349999999999994815 ) ;
#627 = VERTEX_POINT ( 'NONE', #943 ) ;
#628 = DIRECTION ( 'NONE',  ( -0.000000000000000000, 1.199596774661888198E-16, 1.000000000000000000 ) ) ;
#629 = DIRECTION ( 'NONE',  ( 0.000000000000000000, -1.000000000000000000, 0.000000000000000000 ) ) ;
#630 = DIRECTION ( 'NONE',  ( 0.000000000000000000, -1.199596774661888198E-16, -1.000000000000000000 ) ) ;
#631 = EDGE_CURVE ( 'NONE', #1237, #82, #398, .T. ) ;
#632 = ORIENTED_EDGE ( 'NONE', *, *, #366, .F. ) ;
#633 = EDGE_CURVE ( 'NONE', #251, #118, #13, .T. ) ;
#634 = FACE_OUTER_BOUND ( 'NONE', #563, .T. ) ;
#635 = EDGE_LOOP ( 'NONE', ( #1231, #98, #806, #474 ) ) ;
#636 = CARTESIAN_POINT ( 'NONE',  ( 0.3847282546750202537, 0.04626467393933295785, 0.07819642218118273702 ) ) ;
#637 = CIRCLE ( 'NONE', #769, 0.06249999999999947958 ) ;
#638 = CARTESIAN_POINT ( 'NONE',  ( 0.3774999999891864855, 2.857313827748747922E-06, 2.735586639785952591E-06 ) ) ;
#639 = VERTEX_POINT ( 'NONE', #1026 ) ;
#640 = TOROIDAL_SURFACE ( 'NONE', #374, 0.1956249999999996603, 0.1231250000000001371 ) ;
#641 = CARTESIAN_POINT ( 'NONE',  ( 0.000000000000000000, -0.1349999999999995093, 0.1805999999999998440 ) ) ;
#642 = DESIGN_CONTEXT ( 'detailed design', #35, 'design' ) ;
#643 = TOROIDAL_SURFACE ( 'NONE', #1207, 0.3474999999999999756, 0.02999999999999999889 ) ;
#644 = CARTESIAN_POINT ( 'NONE',  ( 0.000000000000000000, -1.423896517261427198E-17, 0.3870000000000017315 ) ) ;
#645 = MANIFOLD_SOLID_BREP ( 'Fillet2', #436 ) ;
#646 = ORIENTED_EDGE ( 'NONE', *, *, #307, .T. ) ;
#647 = DIRECTION ( 'NONE',  ( -0.000000000000000000, 1.356878142548475267E-16, -1.000000000000000000 ) ) ;
#648 = ORIENTED_EDGE ( 'NONE', *, *, #715, .T. ) ;
#649 = EDGE_CURVE ( 'NONE', #1251, #639, #163, .T. ) ;
#650 = ORIENTED_EDGE ( 'NONE', *, *, #685, .F. ) ;
#651 = CARTESIAN_POINT ( 'NONE',  ( 0.000000000000000000, -6.325448938529924235E-17, -0.02160000000000011910 ) ) ;
#652 = VERTEX_POINT ( 'NONE', #1223 ) ;
#653 = CARTESIAN_POINT ( 'NONE',  ( 0.000000000000000000, -7.202394518782261894E-17, -0.6449999999999999067 ) ) ;
#654 = ORIENTED_EDGE ( 'NONE', *, *, #1017, .T. ) ;
#655 = CARTESIAN_POINT ( 'NONE',  ( 0.000000000000000000, -0.04250000000000023898, -0.6449999999999999067 ) ) ;
#656 = ORIENTED_EDGE ( 'NONE', *, *, #216, .F. ) ;
#657 = DIRECTION ( 'NONE',  ( -0.000000000000000000, 1.199596774661888198E-16, 1.000000000000000000 ) ) ;
#658 = VERTEX_POINT ( 'NONE', #221 ) ;
#659 = DIRECTION ( 'NONE',  ( -1.224646799147353454E-16, 1.000000000000000000, 0.000000000000000000 ) ) ;
#660 = AXIS2_PLACEMENT_3D ( 'NONE', #932, #539, #144 ) ;
#661 = VERTEX_POINT ( 'NONE', #532 ) ;
#662 = ADVANCED_FACE ( 'NONE', ( #619 ), #130, .T. ) ;
#663 = CIRCLE ( 'NONE', #457, 0.06249999999999997918 ) ;
#664 = EDGE_CURVE ( 'NONE', #739, #200, #31, .T. ) ;
#665 = FACE_OUTER_BOUND ( 'NONE', #1180, .T. ) ;
#666 = VERTEX_POINT ( 'NONE', #638 ) ;
#667 = CARTESIAN_POINT ( 'NONE',  ( 0.3774998857832866372, 0.01506143804333137659, 0.02606734519563822308 ) ) ;
#668 = VERTEX_POINT ( 'NONE', #521 ) ;
#669 = DIRECTION ( 'NONE',  ( 0.000000000000000000, -1.000000000000000000, 0.000000000000000000 ) ) ;
#670 = EDGE_LOOP ( 'NONE', ( #770, #573, #1253, #400 ) ) ;
#671 = CARTESIAN_POINT ( 'NONE',  ( 0.000000000000000000, -6.685327970928490448E-17, -0.05160000000000005554 ) ) ;
#672 = EDGE_CURVE ( 'NONE', #381, #11, #936, .T. ) ;
#673 = ORIENTED_EDGE ( 'NONE', *, *, #881, .F. ) ;
#674 = CARTESIAN_POINT ( 'NONE',  ( -0.03999999999999997308, -6.712535799123320463E-17, 0.1031999999999998752 ) ) ;
#675 = ORIENTED_EDGE ( 'NONE', *, *, #326, .T. ) ;
#676 = ADVANCED_FACE ( 'NONE', ( #526 ), #640, .F. ) ;
#677 = DIRECTION ( 'NONE',  ( 1.000000000000000000, -1.224646799147353207E-16, 1.469082350357170050E-32 ) ) ;
#678 = ORIENTED_EDGE ( 'NONE', *, *, #775, .F. ) ;
#679 = DIRECTION ( 'NONE',  ( 1.000000000000000000, 0.000000000000000000, 0.000000000000000000 ) ) ;
#680 = DIRECTION ( 'NONE',  ( -0.000000000000000000, 1.199596774661888198E-16, 1.000000000000000000 ) ) ;
#681 = CARTESIAN_POINT ( 'NONE',  ( 0.3748006415068229624, -0.04506361199542215090, 0.07820297452812306760 ) ) ;
#682 = ORIENTED_EDGE ( 'NONE', *, *, #598, .F. ) ;
#683 = FACE_OUTER_BOUND ( 'NONE', #46, .T. ) ;
#684 = AXIS2_PLACEMENT_3D ( 'NONE', #97, #1086, #591 ) ;
#685 = EDGE_CURVE ( 'NONE', #800, #639, #333, .T. ) ;
#686 = DIRECTION ( 'NONE',  ( 1.805696897305282273E-17, -0.1474463411460741336, -0.9890700564078539481 ) ) ;
#687 = LOCAL_TIME ( 13, 27, 23.00000000000000000, #1085 ) ;
#688 = DIRECTION ( 'NONE',  ( 0.000000000000000000, 1.000000000000000000, 0.000000000000000000 ) ) ;
#689 = APPROVAL_DATE_TIME ( #194, #105 ) ;
#690 = AXIS2_PLACEMENT_3D ( 'NONE', #408, #808, #802 ) ;
#691 = CARTESIAN_POINT ( 'NONE',  ( 0.000000000000000000, 5.878272738465595129E-18, 0.5547000000000017472 ) ) ;
#692 = CIRCLE ( 'NONE', #859, 0.08750000000000009159 ) ;
#693 = EDGE_LOOP ( 'NONE', ( #1250, #281, #1043, #236 ) ) ;
#694 = CYLINDRICAL_SURFACE ( 'NONE', #518, 0.03999999999999997308 ) ;
#695 = CARTESIAN_POINT ( 'NONE',  ( 0.000000000000000000, -0.06249999999999970857, 0.6449999999999999067 ) ) ;
#696 = EDGE_CURVE ( 'NONE', #18, #251, #336, .T. ) ;
#697 = ADVANCED_FACE ( 'NONE', ( #634 ), #1112, .T. ) ;
#698 = DIRECTION ( 'NONE',  ( -0.000000000000000000, 1.199596774661888198E-16, 1.000000000000000000 ) ) ;
#699 = CC_DESIGN_DATE_AND_TIME_ASSIGNMENT ( #117, #612, ( #127 ) ) ;
#700 = CALENDAR_DATE ( 2026, 24, 8 ) ;
#701 = CARTESIAN_POINT ( 'NONE',  ( 0.3775001139644936221, -0.01505522906941781508, 0.02606952274013632845 ) ) ;
#702 = ORIENTED_EDGE ( 'NONE', *, *, #777, .F. ) ;
#703 = FACE_OUTER_BOUND ( 'NONE', #575, .T. ) ;
#704 = LINE ( 'NONE', #695, #115 ) ;
#705 = DIRECTION ( 'NONE',  ( 0.000000000000000000, -1.000000000000000000, 0.000000000000000000 ) ) ;
#706 = CALENDAR_DATE ( 2026, 24, 8 ) ;
#707 = DIMENSIONAL_EXPONENTS ( 1.000000000000000000, 0.000000000000000000, 0.000000000000000000, 0.000000000000000000, 0.000000000000000000, 0.000000000000000000, 0.000000000000000000 ) ;
#708 = VERTEX_POINT ( 'NONE', #1226 ) ;
#709 = CARTESIAN_POINT ( 'NONE',  ( 0.000000000000000000, -3.150116275999906395E-17, 0.2430999999999998717 ) ) ;
#710 = DIRECTION ( 'NONE',  ( 0.000000000000000000, -1.199596774661888198E-16, -1.000000000000000000 ) ) ;
#711 = AXIS2_PLACEMENT_3D ( 'NONE', #819, #588, #1201 ) ;
#712 = CC_DESIGN_APPROVAL ( #14, ( #127 ) ) ;
#713 = PERSON_AND_ORGANIZATION ( #286, #346 ) ;
#714 = AXIS2_PLACEMENT_3D ( 'NONE', #733, #727, #629 ) ;
#715 = EDGE_CURVE ( 'NONE', #1140, #954, #325, .T. ) ;
#716 = CLOSED_SHELL ( 'NONE', ( #45, #741, #676, #83, #443, #529, #1236, #519, #614, #538, #597, #291, #1069, #411, #382, #48, #315, #230, #502, #1172, #1009, #827, #926, #697 ) ) ;
#717 = DIRECTION ( 'NONE',  ( -0.000000000000000000, -0.000000000000000000, 1.000000000000000000 ) ) ;
#718 = DIRECTION ( 'NONE',  ( 0.000000000000000000, -1.000000000000000000, 1.199596774661888198E-16 ) ) ;
#719 = AXIS2_PLACEMENT_3D ( 'NONE', #1090, #121, #1197 ) ;
#720 = DIRECTION ( 'NONE',  ( 0.000000000000000000, 1.000000000000000000, -1.199596774661888198E-16 ) ) ;
#721 = ORIENTED_EDGE ( 'NONE', *, *, #1000, .T. ) ;
#722 = PERSON_AND_ORGANIZATION_ROLE ( 'design_owner' ) ;
#723 = EDGE_CURVE ( 'NONE', #118, #251, #246, .T. ) ;
#724 = DIRECTION ( 'NONE',  ( -0.000000000000000000, 1.199596774661888198E-16, 1.000000000000000000 ) ) ;
#725 = DIRECTION ( 'NONE',  ( -0.000000000000000000, 1.199596774661888198E-16, 1.000000000000000000 ) ) ;
#726 = CARTESIAN_POINT ( 'NONE',  ( 0.000000000000000000, -0.3775000000000000022, 0.6449999999999999067 ) ) ;
#727 = DIRECTION ( 'NONE',  ( -0.000000000000000000, 1.199596774661888198E-16, 1.000000000000000000 ) ) ;
#728 = DIRECTION ( 'NONE',  ( 0.000000000000000000, -1.000000000000000000, 0.000000000000000000 ) ) ;
#729 = AXIS2_PLACEMENT_3D ( 'NONE', #1007, #1002, #1105 ) ;
#730 = CC_DESIGN_APPROVAL ( #105, ( #934 ) ) ;
#731 = AXIS2_PLACEMENT_3D ( 'NONE', #1200, #431, #622 ) ;
#732 = CARTESIAN_POINT ( 'NONE',  ( 0.3847291339280936029, -0.04625736165129919891, 0.07820299421398962947 ) ) ;
#733 = CARTESIAN_POINT ( 'NONE',  ( 0.000000000000000000, 1.671063161366223189E-17, 0.6449999999999999067 ) ) ;
#734 = AXIS2_PLACEMENT_3D ( 'NONE', #169, #864, #64 ) ;
#735 = CARTESIAN_POINT ( 'NONE',  ( 0.000000000000000000, -1.380373523177213167E-16, -0.6449999999999999067 ) ) ;
#736 = ADVANCED_FACE ( 'NONE', ( #57 ), #269, .F. ) ;
#737 = AXIS2_PLACEMENT_3D ( 'NONE', #323, #724, #69 ) ;
#738 = CARTESIAN_POINT ( 'NONE',  ( 0.000000000000000000, -4.259743292562152423E-17, 0.1505999999999999006 ) ) ;
#739 = VERTEX_POINT ( 'NONE', #826 ) ;
#740 = DIRECTION ( 'NONE',  ( 0.000000000000000000, -1.000000000000000000, 1.228348918014506994E-16 ) ) ;
#741 = ADVANCED_FACE ( 'NONE', ( #440 ), #1101, .T. ) ;
#742 = ORIENTED_EDGE ( 'NONE', *, *, #596, .F. ) ;
#743 = CARTESIAN_POINT ( 'NONE',  ( 0.000000000000000000, 1.671063161366223189E-17, 0.6449999999999999067 ) ) ;
#744 = ORIENTED_EDGE ( 'NONE', *, *, #1003, .T. ) ;
#745 = CARTESIAN_POINT ( 'NONE',  ( 0.03999999999999997308, -7.202394518782261894E-17, 0.1031999999999998752 ) ) ;
#746 = CIRCLE ( 'NONE', #1155, 0.1956249999999996325 ) ;
#747 = LINE ( 'NONE', #1151, #900 ) ;
#748 = VECTOR ( 'NONE', #219, 39.37007874015748143 ) ;
#749 = ORIENTED_EDGE ( 'NONE', *, *, #633, .F. ) ;
#750 = EDGE_CURVE ( 'NONE', #1157, #258, #148, .T. ) ;
#751 = AXIS2_PLACEMENT_3D ( 'NONE', #264, #857, #659 ) ;
#752 = CARTESIAN_POINT ( 'NONE',  ( 0.3783957766122901245, -0.01516235593357875486, 0.07820080353638732273 ) ) ;
#753 = ORIENTED_EDGE ( 'NONE', *, *, #87, .F. ) ;
#754 = TOROIDAL_SURFACE ( 'NONE', #833, 0.04249999999999972550, 0.02000000000000000042 ) ;
#755 = CARTESIAN_POINT ( 'NONE',  ( 0.3874999999888558144, 2.938841780559933322E-06, 2.745429942413446088E-06 ) ) ;
#756 = ORIENTED_EDGE ( 'NONE', *, *, #1224, .F. ) ;
#757 = DIRECTION ( 'NONE',  ( -0.000000000000000000, -0.000000000000000000, 1.000000000000000000 ) ) ;
#758 = ORIENTED_EDGE ( 'NONE', *, *, #1049, .F. ) ;
#759 = DIRECTION ( 'NONE',  ( -0.000000000000000000, 1.199596774661888198E-16, 1.000000000000000000 ) ) ;
#760 = ORIENTED_EDGE ( 'NONE', *, *, #631, .F. ) ;
#761 = CARTESIAN_POINT ( 'NONE',  ( 0.3747997835866324623, 0.04507074686993080975, 0.07819642218118273702 ) ) ;
#762 = ORIENTED_EDGE ( 'NONE', *, *, #816, .T. ) ;
#763 = LINE ( 'NONE', #1249, #93 ) ;
#764 = EDGE_LOOP ( 'NONE', ( #277, #1072, #142, #23 ) ) ;
#765 = EDGE_CURVE ( 'NONE', #972, #786, #620, .T. ) ;
#766 = DIRECTION ( 'NONE',  ( 0.000000000000000000, -1.000000000000000000, 0.000000000000000000 ) ) ;
#767 = EDGE_LOOP ( 'NONE', ( #571, #982, #509, #945 ) ) ;
#768 = DIRECTION ( 'NONE',  ( -0.000000000000000000, 1.356878142548475267E-16, -1.000000000000000000 ) ) ;
#769 = AXIS2_PLACEMENT_3D ( 'NONE', #201, #504, #906 ) ;
#770 = ORIENTED_EDGE ( 'NONE', *, *, #907, .F. ) ;
#771 = LOCAL_TIME ( 13, 27, 23.00000000000000000, #301 ) ;
#772 = CARTESIAN_POINT ( 'NONE',  ( 0.000000000000000000, -0.06250000000000024980, -0.5546999999999999709 ) ) ;
#773 = AXIS2_PLACEMENT_3D ( 'NONE', #1012, #1213, #829 ) ;
#774 = EDGE_LOOP ( 'NONE', ( #835, #484 ) ) ;
#775 = EDGE_CURVE ( 'NONE', #445, #258, #878, .T. ) ;
#776 = AXIS2_PLACEMENT_3D ( 'NONE', #454, #282, #276 ) ;
#777 = EDGE_CURVE ( 'NONE', #891, #168, #318, .T. ) ;
#778 = CARTESIAN_POINT ( 'NONE',  ( 2.395715300832005793E-17, 0.1956249999999995770, -0.05160000000000010412 ) ) ;
#779 = ORIENTED_EDGE ( 'NONE', *, *, #890, .T. ) ;
#780 = CARTESIAN_POINT ( 'NONE',  ( 0.000000000000000000, -1.423896517261427198E-17, 0.3870000000000017315 ) ) ;
#781 = ORIENTED_EDGE ( 'NONE', *, *, #851, .F. ) ;
#782 = FACE_BOUND ( 'NONE', #966, .T. ) ;
#783 = ORIENTED_EDGE ( 'NONE', *, *, #10, .F. ) ;
#784 = CARTESIAN_POINT ( 'NONE',  ( 8.878689293818247951E-18, 0.07249999999999942601, 0.3870000000000017315 ) ) ;
#785 = DIRECTION ( 'NONE',  ( 1.805696897305260394E-17, 0.1474463411460723294, 0.9890700564078541701 ) ) ;
#786 = VERTEX_POINT ( 'NONE', #1131 ) ;
#787 = CARTESIAN_POINT ( 'NONE',  ( 6.429395695523570842E-18, -0.04249999999999971162, 0.6449999999999999067 ) ) ;
#788 = CARTESIAN_POINT ( 'NONE',  ( 0.000000000000000000, 0.04249999999999974631, 0.6249999999999998890 ) ) ;
#789 = CARTESIAN_POINT ( 'NONE',  ( 7.654042494670971412E-18, 0.06249999999999999306, -0.5546999999999999709 ) ) ;
#790 = EDGE_CURVE ( 'NONE', #1263, #1164, #974, .T. ) ;
#791 = ORIENTED_EDGE ( 'NONE', *, *, #871, .F. ) ;
#792 = CARTESIAN_POINT ( 'NONE',  ( 0.000000000000000000, -8.162331499730942002E-17, -0.1747250000000001302 ) ) ;
#793 = EDGE_CURVE ( 'NONE', #1168, #445, #241, .T. ) ;
#794 = CARTESIAN_POINT ( 'NONE',  ( 8.878689293818255655E-18, 0.07249999999999942601, -0.3869999999999998441 ) ) ;
#795 = CIRCLE ( 'NONE', #50, 0.06249999999999972938 ) ;
#796 = CARTESIAN_POINT ( 'NONE',  ( 1.653273178848920396E-17, 0.1349999999999994538, 0.2430999999999998717 ) ) ;
#797 = CALENDAR_DATE ( 2026, 24, 8 ) ;
#798 = TOROIDAL_SURFACE ( 'NONE', #438, 0.1956249999999996603, 0.1231250000000001371 ) ;
#799 = CARTESIAN_POINT ( 'NONE',  ( 0.3847291353215732679, -0.04625735006152605078, 0.07820297452812306760 ) ) ;
#800 = VERTEX_POINT ( 'NONE', #1210 ) ;
#801 = DIRECTION ( 'NONE',  ( 0.000000000000000000, 0.000000000000000000, 1.000000000000000000 ) ) ;
#802 = DIRECTION ( 'NONE',  ( 0.000000000000000000, -1.000000000000000000, 0.000000000000000000 ) ) ;
#803 = FACE_OUTER_BOUND ( 'NONE', #764, .T. ) ;
#804 = AXIS2_PLACEMENT_3D ( 'NONE', #157, #90, #1068 ) ;
#805 = CALENDAR_DATE ( 2026, 24, 8 ) ;
#806 = ORIENTED_EDGE ( 'NONE', *, *, #363, .F. ) ;
#807 = DIRECTION ( 'NONE',  ( 0.000000000000000000, -1.000000000000000000, -1.356878142548475020E-16 ) ) ;
#808 = DIRECTION ( 'NONE',  ( -0.000000000000000000, 1.199596774661888198E-16, 1.000000000000000000 ) ) ;
#809 = DIRECTION ( 'NONE',  ( 1.000000000000000000, -1.224646799147353207E-16, 1.469082350357170050E-32 ) ) ;
#810 = EDGE_CURVE ( 'NONE', #607, #931, #350, .T. ) ;
#811 = APPROVAL_STATUS ( 'not_yet_approved' ) ;
#812 = ORIENTED_EDGE ( 'NONE', *, *, #578, .F. ) ;
#813 = PLANE ( 'NONE',  #711 ) ;
#814 = DIRECTION ( 'NONE',  ( -0.000000000000000000, 1.199596774661888198E-16, 1.000000000000000000 ) ) ;
#815 = CARTESIAN_POINT ( 'NONE',  ( 0.000000000000000000, -6.685327970928490448E-17, -0.05160000000000006942 ) ) ;
#816 = EDGE_CURVE ( 'NONE', #536, #956, #626, .T. ) ;
#817 = PERSON_AND_ORGANIZATION ( #286, #346 ) ;
#818 = AXIS2_PLACEMENT_3D ( 'NONE', #442, #843, #1218 ) ;
#819 = CARTESIAN_POINT ( 'NONE',  ( 0.000000000000000000, 0.06250000000000000000, 0.6449999999999999067 ) ) ;
#820 = CIRCLE ( 'NONE', #483, 0.3775000000000000022 ) ;
#821 = CYLINDRICAL_SURFACE ( 'NONE', #209, 0.06250000000000009714 ) ;
#822 = DIRECTION ( 'NONE',  ( -0.000000000000000000, 1.199596774661888198E-16, 1.000000000000000000 ) ) ;
#823 = DIRECTION ( 'NONE',  ( -0.000000000000000000, -0.000000000000000000, 1.000000000000000000 ) ) ;
#824 = DIRECTION ( 'NONE',  ( -1.000000000000000000, -0.000000000000000000, 0.000000000000000000 ) ) ;
#825 = B_SPLINE_SURFACE_WITH_KNOTS ( 'NONE', 1, 3, ( 
 ( #1044, #1247, #952, #755 ),
 ( #565, #861, #667, #75 ) ),
 .UNSPECIFIED., .F., .F., .F.,
 ( 2, 2 ),
 ( 4, 4 ),
 ( 0.000000000000000000, 1.000000000000000000 ),
 ( 0.000000000000000000, 0.9999998741164010108 ),
 .UNSPECIFIED. ) ;
#826 = CARTESIAN_POINT ( 'NONE',  ( -0.03999999999999997308, -6.712535799123320463E-17, 0.1031999999999998752 ) ) ;
#827 = ADVANCED_FACE ( 'NONE', ( #462 ), #825, .F. ) ;
#828 = EDGE_CURVE ( 'NONE', #607, #165, #361, .T. ) ;
#829 = DIRECTION ( 'NONE',  ( 0.000000000000000000, -1.000000000000000000, 0.000000000000000000 ) ) ;
#830 = EDGE_CURVE ( 'NONE', #1168, #1157, #910, .T. ) ;
#831 = FACE_OUTER_BOUND ( 'NONE', #1137, .T. ) ;
#832 = CIRCLE ( 'NONE', #293, 0.3474999999999999756 ) ;
#833 = AXIS2_PLACEMENT_3D ( 'NONE', #403, #601, #997 ) ;
#834 = CARTESIAN_POINT ( 'NONE',  ( 4.623041666781258597E-17, 0.3775000000000000022, 0.6449999999999999067 ) ) ;
#835 = ORIENTED_EDGE ( 'NONE', *, *, #10, .T. ) ;
#836 = AXIS2_PLACEMENT_3D ( 'NONE', #120, #210, #720 ) ;
#837 = CARTESIAN_POINT ( 'NONE',  ( 7.654042494670969871E-18, 0.06249999999999996531, -0.6249999999999998890 ) ) ;
#838 = B_SPLINE_SURFACE_WITH_KNOTS ( 'NONE', 1, 3, ( 
 ( #475, #355, #1238, #249 ),
 ( #280, #1158, #81, #874 ) ),
 .UNSPECIFIED., .F., .F., .F.,
 ( 2, 2 ),
 ( 4, 4 ),
 ( 0.000000000000000000, 1.000000000000000000 ),
 ( 0.000000000000000000, 1.000000000000000000 ),
 .UNSPECIFIED. ) ;
#839 = CIRCLE ( 'NONE', #135, 0.3775000000000000022 ) ;
#840 = DIRECTION ( 'NONE',  ( -0.000000000000000000, 1.199596774661888198E-16, 1.000000000000000000 ) ) ;
#841 = B_SPLINE_CURVE_WITH_KNOTS ( 'NONE', 1,
 ( #212, #1269 ),
 .UNSPECIFIED., .F., .F.,
 ( 2, 2 ),
 ( 0.000000000000000000, 1.000000000000000000 ),
 .UNSPECIFIED. ) ;
#842 = ORIENTED_EDGE ( 'NONE', *, *, #34, .T. ) ;
#843 = DIRECTION ( 'NONE',  ( 0.000000000000000000, -1.199596774661888198E-16, -1.000000000000000000 ) ) ;
#844 = EDGE_CURVE ( 'NONE', #18, #365, #839, .T. ) ;
#845 = ORIENTED_EDGE ( 'NONE', *, *, #793, .F. ) ;
#846 = DIRECTION ( 'NONE',  ( 0.000000000000000000, 1.000000000000000000, -9.826791344116055949E-17 ) ) ;
#847 = ORIENTED_EDGE ( 'NONE', *, *, #61, .T. ) ;
#848 = PRODUCT_DEFINITION_SHAPE ( 'NONE', 'NONE',  #459 ) ;
#849 = DIRECTION ( 'NONE',  ( 0.000000000000000000, -1.199596774661888198E-16, -1.000000000000000000 ) ) ;
#850 = ORIENTED_EDGE ( 'NONE', *, *, #723, .F. ) ;
#851 = EDGE_CURVE ( 'NONE', #949, #627, #863, .T. ) ;
#852 = CIRCLE ( 'NONE', #875, 0.06249999999999947958 ) ;
#853 = APPROVAL_PERSON_ORGANIZATION ( #1206, #105, #1177 ) ;
#854 = CARTESIAN_POINT ( 'NONE',  ( 0.000000000000000000, -0.06249999999999970857, 0.6249999999999998890 ) ) ;
#855 = ORIENTED_EDGE ( 'NONE', *, *, #1015, .T. ) ;
#856 = CIRCLE ( 'NONE', #229, 0.1956249999999996325 ) ;
#857 = DIRECTION ( 'NONE',  ( 1.000000000000000000, 1.224646799147353207E-16, -1.469082350357170050E-32 ) ) ;
#858 = EDGE_LOOP ( 'NONE', ( #845, #170, #158, #678 ) ) ;
#859 = AXIS2_PLACEMENT_3D ( 'NONE', #191, #202, #299 ) ;
#860 = ORIENTED_EDGE ( 'NONE', *, *, #423, .T. ) ;
#861 = CARTESIAN_POINT ( 'NONE',  ( 0.3765976676236860721, 0.03011988417519518776, 0.05213182241548709739 ) ) ;
#862 = ORIENTED_EDGE ( 'NONE', *, *, #975, .T. ) ;
#863 = CIRCLE ( 'NONE', #162, 0.08749999999999974465 ) ;
#864 = DIRECTION ( 'NONE',  ( -1.000000000000000000, -0.000000000000000000, 0.000000000000000000 ) ) ;
#865 = ORIENTED_EDGE ( 'NONE', *, *, #816, .F. ) ;
#866 = ORIENTED_EDGE ( 'NONE', *, *, #1121, .F. ) ;
#867 = DIRECTION ( 'NONE',  ( 0.000000000000000000, -1.000000000000000000, 0.000000000000000000 ) ) ;
#868 = ORIENTED_EDGE ( 'NONE', *, *, #830, .F. ) ;
#869 = FACE_OUTER_BOUND ( 'NONE', #370, .T. ) ;
#870 = VERTEX_POINT ( 'NONE', #576 ) ;
#871 = EDGE_CURVE ( 'NONE', #896, #559, #540, .T. ) ;
#872 = DIRECTION ( 'NONE',  ( 0.000000000000000000, 0.000000000000000000, 1.000000000000000000 ) ) ;
#873 = ORIENTED_EDGE ( 'NONE', *, *, #554, .T. ) ;
#874 = CARTESIAN_POINT ( 'NONE',  ( 0.3747997835866325733, 0.04507074686993080975, 0.07819642218118273702 ) ) ;
#875 = AXIS2_PLACEMENT_3D ( 'NONE', #691, #585, #1075 ) ;
#876 = ORIENTED_EDGE ( 'NONE', *, *, #1000, .F. ) ;
#877 = DIRECTION ( 'NONE',  ( 0.000000000000000000, -1.000000000000000000, 1.199596774661888198E-16 ) ) ;
#878 = CIRCLE ( 'NONE', #145, 0.3775000000000000022 ) ;
#879 = ORIENTED_EDGE ( 'NONE', *, *, #1199, .T. ) ;
#880 = CIRCLE ( 'NONE', #32, 0.02000000000000000042 ) ;
#881 = EDGE_CURVE ( 'NONE', #739, #891, #747, .T. ) ;
#882 = CIRCLE ( 'NONE', #734, 0.01999999999999999001 ) ;
#883 = DIRECTION ( 'NONE',  ( 0.000000000000000000, -1.199596774661888198E-16, -1.000000000000000000 ) ) ;
#884 = CARTESIAN_POINT ( 'NONE',  ( 0.3765981825987105291, -0.03011320024319099134, 0.05213618737462649699 ) ) ;
#885 = EDGE_LOOP ( 'NONE', ( #262, #358, #1096, #756 ) ) ;
#886 = CARTESIAN_POINT ( 'NONE',  ( 8.878689293818249492E-18, 0.07249999999999946765, 0.2430999999999998717 ) ) ;
#887 = FACE_OUTER_BOUND ( 'NONE', #670, .T. ) ;
#888 = CARTESIAN_POINT ( 'NONE',  ( 0.000000000000000000, 1.431143806433844995E-17, 0.6249999999999998890 ) ) ;
#889 = LINE ( 'NONE', #789, #950 ) ;
#890 = EDGE_CURVE ( 'NONE', #1032, #652, #935, .T. ) ;
#891 = VERTEX_POINT ( 'NONE', #570 ) ;
#892 = DIRECTION ( 'NONE',  ( -0.000000000000000000, 1.199596774661888198E-16, 1.000000000000000000 ) ) ;
#893 = DIRECTION ( 'NONE',  ( -0.000000000000000000, 1.199596774661888198E-16, 1.000000000000000000 ) ) ;
#894 = COORDINATED_UNIVERSAL_TIME_OFFSET ( 6, 0, .BEHIND. ) ;
#895 = DIRECTION ( 'NONE',  ( 1.000000000000000000, 1.224646799147353207E-16, -1.469082350357170050E-32 ) ) ;
#896 = VERTEX_POINT ( 'NONE', #1230 ) ;
#897 = DIRECTION ( 'NONE',  ( 1.000000000000000000, 0.000000000000000000, 0.000000000000000000 ) ) ;
#898 = AXIS2_PLACEMENT_3D ( 'NONE', #99, #510, #807 ) ;
#899 = CARTESIAN_POINT ( 'NONE',  ( 1.071565949253930913E-17, -0.08749999999999977240, 0.3870000000000017315 ) ) ;
#900 = VECTOR ( 'NONE', #971, 39.37007874015748143 ) ;
#901 = AXIS2_PLACEMENT_3D ( 'NONE', #1033, #1019, #138 ) ;
#902 = FACE_OUTER_BOUND ( 'NONE', #468, .T. ) ;
#903 = APPROVAL_DATE_TIME ( #513, #14 ) ;
#904 = AXIS2_PLACEMENT_3D ( 'NONE', #551, #967, #973 ) ;
#905 = EDGE_LOOP ( 'NONE', ( #180, #873, #1117, #342 ) ) ;
#906 = DIRECTION ( 'NONE',  ( 0.000000000000000000, -1.000000000000000000, 0.000000000000000000 ) ) ;
#907 = EDGE_CURVE ( 'NONE', #242, #1263, #261, .T. ) ;
#908 = DIRECTION ( 'NONE',  ( 0.000000000000000000, 1.000000000000000000, -1.199596774661888198E-16 ) ) ;
#909 = DIRECTION ( 'NONE',  ( -1.000000000000000000, -0.000000000000000000, 0.000000000000000000 ) ) ;
#910 = CIRCLE ( 'NONE', #985, 0.3775000000000000022 ) ;
#911 = VERTEX_POINT ( 'NONE', #854 ) ;
#912 = DIRECTION ( 'NONE',  ( 0.000000000000000000, -1.000000000000000000, 0.000000000000000000 ) ) ;
#913 = DIRECTION ( 'NONE',  ( -0.000000000000000000, 1.199596774661888198E-16, 1.000000000000000000 ) ) ;
#914 = EDGE_CURVE ( 'NONE', #82, #607, #880, .T. ) ;
#915 = CARTESIAN_POINT ( 'NONE',  ( 4.439344646909155407E-17, 0.3474999999999999201, -0.05160000000000009718 ) ) ;
#916 = EDGE_CURVE ( 'NONE', #552, #954, #1081, .T. ) ;
#917 = SHAPE_DEFINITION_REPRESENTATION ( #848, #263 ) ;
#918 = CARTESIAN_POINT ( 'NONE',  ( 0.000000000000000000, -7.202394518782261894E-17, -0.6449999999999999067 ) ) ;
#919 = DIRECTION ( 'NONE',  ( -0.000000000000000000, 1.199596774661888198E-16, 1.000000000000000000 ) ) ;
#920 = AXIS2_PLACEMENT_3D ( 'NONE', #473, #872, #1257 ) ;
#921 = CIRCLE ( 'NONE', #167, 0.03999999999999997308 ) ;
#922 = CARTESIAN_POINT ( 'NONE',  ( 0.000000000000000000, -3.414809992080329023E-17, 0.2430999999999998717 ) ) ;
#923 = FACE_OUTER_BOUND ( 'NONE', #161, .T. ) ;
#924 = PLANE ( 'NONE',  #225 ) ;
#925 = CC_DESIGN_PERSON_AND_ORGANIZATION_ASSIGNMENT ( #396, #722, ( #55 ) ) ;
#926 = ADVANCED_FACE ( 'NONE', ( #965 ), #838, .F. ) ;
#927 = CC_DESIGN_PERSON_AND_ORGANIZATION_ASSIGNMENT ( #713, #500, ( #127 ) ) ;
#928 = DIRECTION ( 'NONE',  ( 0.000000000000000000, 1.000000000000000000, 0.000000000000000000 ) ) ;
#929 = CARTESIAN_POINT ( 'NONE',  ( 0.000000000000000000, -6.685327970928490448E-17, -0.05160000000000005554 ) ) ;
#930 = DIRECTION ( 'NONE',  ( 0.000000000000000000, -1.000000000000000000, -1.356878142548475020E-16 ) ) ;
#931 = VERTEX_POINT ( 'NONE', #1259 ) ;
#932 = CARTESIAN_POINT ( 'NONE',  ( 0.000000000000000000, -7.202394518782261894E-17, -0.6449999999999999067 ) ) ;
#933 = CIRCLE ( 'NONE', #684, 0.03000000000000002318 ) ;
#934 = PRODUCT_DEFINITION_FORMATION_WITH_SPECIFIED_SOURCE ( 'ANY', '', #55, .NOT_KNOWN. ) ;
#935 = CIRCLE ( 'NONE', #397, 0.3474999999999999756 ) ;
#936 = CIRCLE ( 'NONE', #901, 0.04249999999999972550 ) ;
#937 = CARTESIAN_POINT ( 'NONE',  ( 0.3874999999889000013, 2.933004260273500493E-06, 2.735586639785952591E-06 ) ) ;
#938 = EDGE_LOOP ( 'NONE', ( #855, #337 ) ) ;
#939 = CIRCLE ( 'NONE', #1239, 0.06249999999999997918 ) ;
#940 = CARTESIAN_POINT ( 'NONE',  ( 0.3747997835866324623, 0.04507074686993080975, 0.07819642218118273702 ) ) ;
#941 = DIRECTION ( 'NONE',  ( 0.000000000000000000, -1.000000000000000000, 1.199596774661888198E-16 ) ) ;
#942 = ORIENTED_EDGE ( 'NONE', *, *, #672, .F. ) ;
#943 = CARTESIAN_POINT ( 'NONE',  ( 1.071565949253930913E-17, -0.08749999999999977240, 0.3870000000000017315 ) ) ;
#944 = EDGE_CURVE ( 'NONE', #627, #949, #42, .T. ) ;
#945 = ORIENTED_EDGE ( 'NONE', *, *, #193, .F. ) ;
#946 = DIRECTION ( 'NONE',  ( 0.000000000000000000, -1.000000000000000000, 1.243804964002768645E-16 ) ) ;
#947 = ORIENTED_EDGE ( 'NONE', *, *, #1121, .T. ) ;
#948 = CARTESIAN_POINT ( 'NONE',  ( 0.3774998857834655497, 0.01506141444343149331, 0.02606730434702251784 ) ) ;
#949 = VERTEX_POINT ( 'NONE', #1039 ) ;
#950 = VECTOR ( 'NONE', #785, 39.37007874015748854 ) ;
#951 = APPLICATION_PROTOCOL_DEFINITION ( 'international standard', 'config_control_design', 1994, #1038 ) ;
#952 = CARTESIAN_POINT ( 'NONE',  ( 0.3874998827576711102, 0.01546041749125485684, 0.02606734680885405137 ) ) ;
#953 = CIRCLE ( 'NONE', #818, 0.06249999999999972938 ) ;
#954 = VERTEX_POINT ( 'NONE', #674 ) ;
#955 = FACE_OUTER_BOUND ( 'NONE', #1174, .T. ) ;
#956 = VERTEX_POINT ( 'NONE', #181 ) ;
#957 = CARTESIAN_POINT ( 'NONE',  ( 0.000000000000000000, -0.07249999999999964806, -0.3869999999999998441 ) ) ;
#958 = ORIENTED_EDGE ( 'NONE', *, *, #765, .T. ) ;
#959 = DIRECTION ( 'NONE',  ( 0.000000000000000000, -1.000000000000000000, 0.000000000000000000 ) ) ;
#960 = ORIENTED_EDGE ( 'NONE', *, *, #151, .F. ) ;
#961 = EDGE_CURVE ( 'NONE', #390, #1164, #152, .T. ) ;
#962 = CARTESIAN_POINT ( 'NONE',  ( 0.03999999999999997308, -7.202394518782261894E-17, 0.1031999999999998752 ) ) ;
#963 = ORIENTED_EDGE ( 'NONE', *, *, #1208, .T. ) ;
#964 = ORIENTED_EDGE ( 'NONE', *, *, #1130, .T. ) ;
#965 = FACE_OUTER_BOUND ( 'NONE', #430, .T. ) ;
#966 = EDGE_LOOP ( 'NONE', ( #876, #351 ) ) ;
#967 = DIRECTION ( 'NONE',  ( -0.000000000000000000, 1.199596774661888198E-16, 1.000000000000000000 ) ) ;
#968 = ORIENTED_EDGE ( 'NONE', *, *, #1130, .F. ) ;
#969 = DIRECTION ( 'NONE',  ( -0.000000000000000000, 1.199596774661888198E-16, 1.000000000000000000 ) ) ;
#970 = EDGE_LOOP ( 'NONE', ( #1150, #153, #1227, #472 ) ) ;
#971 = DIRECTION ( 'NONE',  ( -0.000000000000000000, -0.000000000000000000, 1.000000000000000000 ) ) ;
#972 = VERTEX_POINT ( 'NONE', #195 ) ;
#973 = DIRECTION ( 'NONE',  ( 0.000000000000000000, -1.000000000000000000, 0.000000000000000000 ) ) ;
#974 = CIRCLE ( 'NONE', #419, 0.07249999999999945377 ) ;
#975 = EDGE_CURVE ( 'NONE', #1246, #1251, #746, .T. ) ;
#976 = CARTESIAN_POINT ( 'NONE',  ( 0.000000000000000000, -4.828352163751888445E-17, 0.1031999999999998058 ) ) ;
#977 = EDGE_CURVE ( 'NONE', #63, #870, #852, .T. ) ;
#978 = EDGE_CURVE ( 'NONE', #165, #658, #889, .T. ) ;
#979 = CIRCLE ( 'NONE', #422, 0.1231250000000001371 ) ;
#980 = LENGTH_MEASURE_WITH_UNIT ( LENGTH_MEASURE( 0.02539999999999999897 ), #583 );
#981 = CARTESIAN_POINT ( 'NONE',  ( 0.000000000000000000, -6.685327970928490448E-17, -0.05160000000000006942 ) ) ;
#982 = ORIENTED_EDGE ( 'NONE', *, *, #993, .T. ) ;
#983 = DIRECTION ( 'NONE',  ( 0.000000000000000000, -1.000000000000000000, 0.000000000000000000 ) ) ;
#984 = FACE_OUTER_BOUND ( 'NONE', #577, .T. ) ;
#985 = AXIS2_PLACEMENT_3D ( 'NONE', #651, #1142, #946 ) ;
#986 = DIRECTION ( 'NONE',  ( 0.000000000000000000, 0.000000000000000000, 1.000000000000000000 ) ) ;
#987 = PERSON_AND_ORGANIZATION ( #286, #346 ) ;
#988 = CARTESIAN_POINT ( 'NONE',  ( 0.000000000000000000, -7.202394518782261894E-17, 0.1031999999999998752 ) ) ;
#989 = EDGE_LOOP ( 'NONE', ( #673, #288, #1092, #1059 ) ) ;
#990 = CARTESIAN_POINT ( 'NONE',  ( 0.000000000000000000, -0.3775000000000000577, -0.02160000000000007400 ) ) ;
#991 = CARTESIAN_POINT ( 'NONE',  ( 0.000000000000000000, -1.272049934425244665E-16, -0.5546999999999999709 ) ) ;
#992 = DIRECTION ( 'NONE',  ( 0.000000000000000000, 0.000000000000000000, 1.000000000000000000 ) ) ;
#993 = EDGE_CURVE ( 'NONE', #155, #1168, #933, .T. ) ;
#994 = ORIENTED_EDGE ( 'NONE', *, *, #1111, .F. ) ;
#995 = DIRECTION ( 'NONE',  ( -0.000000000000000000, 1.199596774661888198E-16, 1.000000000000000000 ) ) ;
#996 = CIRCLE ( 'NONE', #1013, 0.08750000000000009159 ) ;
#997 = DIRECTION ( 'NONE',  ( 0.000000000000000000, 1.000000000000000000, -1.199596774661888198E-16 ) ) ;
#998 = CARTESIAN_POINT ( 'NONE',  ( 0.000000000000000000, -7.202394518782261894E-17, -0.6449999999999999067 ) ) ;
#999 = AXIS2_PLACEMENT_3D ( 'NONE', #85, #159, #357 ) ;
#1000 = EDGE_CURVE ( 'NONE', #200, #739, #47, .T. ) ;
#1001 = ORIENTED_EDGE ( 'NONE', *, *, #423, .F. ) ;
#1002 = DIRECTION ( 'NONE',  ( -0.000000000000000000, 1.199596774661888198E-16, 1.000000000000000000 ) ) ;
#1003 = EDGE_CURVE ( 'NONE', #652, #118, #110, .T. ) ;
#1004 = LINE ( 'NONE', #511, #274 ) ;
#1005 = FACE_OUTER_BOUND ( 'NONE', #106, .T. ) ;
#1006 = MECHANICAL_CONTEXT ( 'NONE', #1038, 'mechanical' ) ;
#1007 = CARTESIAN_POINT ( 'NONE',  ( 0.000000000000000000, -6.325448938529924235E-17, -0.02160000000000011910 ) ) ;
#1008 = DIRECTION ( 'NONE',  ( 1.000000000000000000, 0.000000000000000000, 0.000000000000000000 ) ) ;
#1009 = ADVANCED_FACE ( 'NONE', ( #1 ), #1010, .F. ) ;
#1010 = B_SPLINE_SURFACE_WITH_KNOTS ( 'NONE', 1, 3, ( 
 ( #7, #399, #187, #799 ),
 ( #1187, #701, #884, #681 ) ),
 .UNSPECIFIED., .F., .F., .F.,
 ( 2, 2 ),
 ( 4, 4 ),
 ( 0.000000000000000000, 1.000000000000000000 ),
 ( 0.000000000000000000, 0.9999997482634084278 ),
 .UNSPECIFIED. ) ;
#1011 = DIRECTION ( 'NONE',  ( -0.000000000000000000, 1.199596774661888198E-16, 1.000000000000000000 ) ) ;
#1012 = CARTESIAN_POINT ( 'NONE',  ( 0.000000000000000000, -1.070877555314446125E-16, -0.3869999999999998441 ) ) ;
#1013 = AXIS2_PLACEMENT_3D ( 'NONE', #254, #759, #766 ) ;
#1014 = CARTESIAN_POINT ( 'NONE',  ( 0.3874998827576711102, 0.01546041749125485684, 0.02606734680885405137 ) ) ;
#1015 = EDGE_CURVE ( 'NONE', #1164, #1263, #1114, .T. ) ;
#1016 = CIRCLE ( 'NONE', #1031, 0.04250000000000010020 ) ;
#1017 = EDGE_CURVE ( 'NONE', #1032, #251, #330, .T. ) ;
#1018 = AXIS2_PLACEMENT_3D ( 'NONE', #465, #252, #1046 ) ;
#1019 = DIRECTION ( 'NONE',  ( -0.000000000000000000, 1.199596774661888198E-16, 1.000000000000000000 ) ) ;
#1020 = VECTOR ( 'NONE', #686, 39.37007874015748143 ) ;
#1021 = CYLINDRICAL_SURFACE ( 'NONE', #433, 0.03999999999999997308 ) ;
#1022 = CARTESIAN_POINT ( 'NONE',  ( 0.3874999999889000013, 2.933004260273500493E-06, 2.735586639785952591E-06 ) ) ;
#1023 = ORIENTED_EDGE ( 'NONE', *, *, #136, .F. ) ;
#1024 = DIRECTION ( 'NONE',  ( -0.000000000000000000, 1.199596774661888198E-16, 1.000000000000000000 ) ) ;
#1025 = ORIENTED_EDGE ( 'NONE', *, *, #76, .F. ) ;
#1026 = CARTESIAN_POINT ( 'NONE',  ( 0.000000000000000000, -0.07249999999999960643, -0.1747250000000001302 ) ) ;
#1027 = DIRECTION ( 'NONE',  ( 0.000000000000000000, -1.199596774661888198E-16, -1.000000000000000000 ) ) ;
#1028 = VERTEX_POINT ( 'NONE', #107 ) ;
#1029 = DIRECTION ( 'NONE',  ( -0.000000000000000000, 1.199596774661888198E-16, 1.000000000000000000 ) ) ;
#1030 = AXIS2_PLACEMENT_3D ( 'NONE', #383, #969, #1165 ) ;
#1031 = AXIS2_PLACEMENT_3D ( 'NONE', #329, #1115, #728 ) ;
#1032 = VERTEX_POINT ( 'NONE', #490 ) ;
#1033 = CARTESIAN_POINT ( 'NONE',  ( 0.000000000000000000, 1.671063161366223497E-17, 0.6449999999999999067 ) ) ;
#1034 = EDGE_CURVE ( 'NONE', #1157, #1168, #602, .T. ) ;
#1035 = ORIENTED_EDGE ( 'NONE', *, *, #101, .F. ) ;
#1036 = AXIS2_PLACEMENT_3D ( 'NONE', #95, #487, #388 ) ;
#1037 = CARTESIAN_POINT ( 'NONE',  ( 0.3847282546750202537, 0.04626467393933295785, 0.07819642218118273702 ) ) ;
#1038 = APPLICATION_CONTEXT ( 'configuration controlled 3d designs of mechanical parts and assemblies' ) ;
#1039 = CARTESIAN_POINT ( 'NONE',  ( 0.000000000000000000, 0.08749999999999973077, 0.3870000000000017315 ) ) ;
#1040 = ORIENTED_EDGE ( 'NONE', *, *, #977, .F. ) ;
#1041 = CARTESIAN_POINT ( 'NONE',  ( 7.654042494670923648E-18, 0.06249999999999974326, 0.6249999999999998890 ) ) ;
#1042 = EDGE_LOOP ( 'NONE', ( #1070, #646, #1143, #137 ) ) ;
#1043 = ORIENTED_EDGE ( 'NONE', *, *, #409, .T. ) ;
#1044 = CARTESIAN_POINT ( 'NONE',  ( 0.3847282546750201981, 0.04626467393933295785, 0.07819642218118273702 ) ) ;
#1045 = EDGE_LOOP ( 'NONE', ( #1040, #1166, #379, #1123 ) ) ;
#1046 = DIRECTION ( 'NONE',  ( 0.000000000000000000, 0.000000000000000000, 1.000000000000000000 ) ) ;
#1047 = ORIENTED_EDGE ( 'NONE', *, *, #177, .T. ) ;
#1048 = CC_DESIGN_PERSON_AND_ORGANIZATION_ASSIGNMENT ( #1198, #28, ( #934 ) ) ;
#1049 = EDGE_CURVE ( 'NONE', #242, #390, #1074, .T. ) ;
#1050 = CONICAL_SURFACE ( 'NONE', #1098, 0.08749999999999974465, 0.1479858941958377416 ) ;
#1051 = PRODUCT_RELATED_PRODUCT_CATEGORY ( 'detail', '', ( #55 ) ) ;
#1052 = CYLINDRICAL_SURFACE ( 'NONE', #1217, 0.03999999999999997308 ) ;
#1053 = ORIENTED_EDGE ( 'NONE', *, *, #914, .F. ) ;
#1054 = DIRECTION ( 'NONE',  ( -0.000000000000000000, 1.199596774661888198E-16, 1.000000000000000000 ) ) ;
#1055 = AXIS2_PLACEMENT_3D ( 'NONE', #49, #525, #338 ) ;
#1056 = ORIENTED_EDGE ( 'NONE', *, *, #916, .F. ) ;
#1057 = CIRCLE ( 'NONE', #690, 0.1349999999999994815 ) ;
#1058 = DIRECTION ( 'NONE',  ( 0.000000000000000000, 0.000000000000000000, 1.000000000000000000 ) ) ;
#1059 = ORIENTED_EDGE ( 'NONE', *, *, #439, .T. ) ;
#1060 =( NAMED_UNIT ( * ) PLANE_ANGLE_UNIT ( ) SI_UNIT ( $, .RADIAN. ) );
#1061 = ORIENTED_EDGE ( 'NONE', *, *, #993, .F. ) ;
#1062 = DIRECTION ( 'NONE',  ( -0.000000000000000000, 1.199596774661888198E-16, 1.000000000000000000 ) ) ;
#1063 = ORIENTED_EDGE ( 'NONE', *, *, #517, .T. ) ;
#1064 = PLANE ( 'NONE',  #776 ) ;
#1065 = ORIENTED_EDGE ( 'NONE', *, *, #439, .F. ) ;
#1066 = FACE_OUTER_BOUND ( 'NONE', #466, .T. ) ;
#1067 = ORIENTED_EDGE ( 'NONE', *, *, #1034, .T. ) ;
#1068 = DIRECTION ( 'NONE',  ( 0.000000000000000000, -1.000000000000000000, 0.000000000000000000 ) ) ;
#1069 = ADVANCED_FACE ( 'NONE', ( #515 ), #1233, .T. ) ;
#1070 = ORIENTED_EDGE ( 'NONE', *, *, #975, .F. ) ;
#1071 = FACE_BOUND ( 'NONE', #564, .T. ) ;
#1072 = ORIENTED_EDGE ( 'NONE', *, *, #914, .T. ) ;
#1073 = FACE_OUTER_BOUND ( 'NONE', #1132, .T. ) ;
#1074 = CIRCLE ( 'NONE', #558, 0.07249999999999949540 ) ;
#1075 = DIRECTION ( 'NONE',  ( 0.000000000000000000, -1.000000000000000000, 0.000000000000000000 ) ) ;
#1076 = CC_DESIGN_SECURITY_CLASSIFICATION ( #127, ( #934 ) ) ;
#1077 = ORIENTED_EDGE ( 'NONE', *, *, #344, .F. ) ;
#1078 = CARTESIAN_POINT ( 'NONE',  ( -0.03999999999999997308, -6.712535799123320463E-17, -0.6449999999999999067 ) ) ;
#1079 = ADVANCED_FACE ( 'NONE', ( #1195 ), #694, .F. ) ;
#1080 = CARTESIAN_POINT ( 'NONE',  ( 0.3884198472598192065, -0.01556116772663309472, 0.07820080333368652215 ) ) ;
#1081 = CIRCLE ( 'NONE', #514, 0.03999999999999997308 ) ;
#1082 = AXIS2_PLACEMENT_3D ( 'NONE', #788, #1176, #986 ) ;
#1083 = CARTESIAN_POINT ( 'NONE',  ( 0.000000000000000000, 0.04249999999999974631, 0.6449999999999999067 ) ) ;
#1084 = AXIS2_PLACEMENT_3D ( 'NONE', #497, #1093, #319 ) ;
#1085 = COORDINATED_UNIVERSAL_TIME_OFFSET ( 6, 0, .BEHIND. ) ;
#1086 = DIRECTION ( 'NONE',  ( 1.000000000000000000, -1.224646799147353207E-16, 1.469082350357170050E-32 ) ) ;
#1087 = ORIENTED_EDGE ( 'NONE', *, *, #961, .F. ) ;
#1088 = CARTESIAN_POINT ( 'NONE',  ( 0.000000000000000000, -0.3775000000000000022, 0.6449999999999999067 ) ) ;
#1089 = CARTESIAN_POINT ( 'NONE',  ( 4.623041666781258597E-17, 0.3774999999999999467, 0.1031999999999998613 ) ) ;
#1090 = CARTESIAN_POINT ( 'NONE',  ( 0.000000000000000000, -1.356381587683975501E-16, -0.6249999999999998890 ) ) ;
#1091 = PERSON_AND_ORGANIZATION ( #286, #346 ) ;
#1092 = ORIENTED_EDGE ( 'NONE', *, *, #240, .T. ) ;
#1093 = DIRECTION ( 'NONE',  ( 0.000000000000000000, -1.199596774661888198E-16, -1.000000000000000000 ) ) ;
#1094 = DIRECTION ( 'NONE',  ( -0.000000000000000000, 1.199596774661888198E-16, 1.000000000000000000 ) ) ;
#1095 = ADVANCED_FACE ( 'NONE', ( #683, #317 ), #1181, .F. ) ;
#1096 = ORIENTED_EDGE ( 'NONE', *, *, #290, .T. ) ;
#1097 = CARTESIAN_POINT ( 'NONE',  ( 0.3765981797824454191, -0.03011322366647906090, 0.05213622821429530346 ) ) ;
#1098 = AXIS2_PLACEMENT_3D ( 'NONE', #407, #392, #197 ) ;
#1099 = CARTESIAN_POINT ( 'NONE',  ( 0.000000000000000000, -0.07249999999999953704, 0.2430999999999998717 ) ) ;
#1100 = LOCAL_TIME ( 13, 27, 23.00000000000000000, #418 ) ;
#1101 = TOROIDAL_SURFACE ( 'NONE', #605, 0.3474999999999999756, 0.02999999999999999889 ) ;
#1102 = CARTESIAN_POINT ( 'NONE',  ( 4.623041666781256749E-17, -0.3775000000000000577, 0.1505999999999999284 ) ) ;
#1103 = SECURITY_CLASSIFICATION_LEVEL ( 'unclassified' ) ;
#1104 = TOROIDAL_SURFACE ( 'NONE', #719, 0.04250000000000010020, 0.02000000000000000042 ) ;
#1105 = DIRECTION ( 'NONE',  ( 0.000000000000000000, -1.000000000000000000, 1.243804964002768645E-16 ) ) ;
#1106 = DIRECTION ( 'NONE',  ( 0.000000000000000000, 0.000000000000000000, 1.000000000000000000 ) ) ;
#1107 = ORIENTED_EDGE ( 'NONE', *, *, #486, .F. ) ;
#1108 = COORDINATED_UNIVERSAL_TIME_OFFSET ( 6, 0, .BEHIND. ) ;
#1109 = CARTESIAN_POINT ( 'NONE',  ( 0.000000000000000000, -1.024442997624098707E-16, -0.1747250000000002135 ) ) ;
#1110 = DIRECTION ( 'NONE',  ( 0.000000000000000000, -1.000000000000000000, 0.000000000000000000 ) ) ;
#1111 = EDGE_CURVE ( 'NONE', #639, #800, #1178, .T. ) ;
#1112 = CYLINDRICAL_SURFACE ( 'NONE', #1219, 0.3875000000000000111 ) ;
#1113 = DIRECTION ( 'NONE',  ( 0.000000000000000000, -1.356878142548475267E-16, 1.000000000000000000 ) ) ;
#1114 = CIRCLE ( 'NONE', #533, 0.07249999999999945377 ) ;
#1115 = DIRECTION ( 'NONE',  ( 0.000000000000000000, -1.199596774661888198E-16, -1.000000000000000000 ) ) ;
#1116 = AXIS2_PLACEMENT_3D ( 'NONE', #1133, #1029, #150 ) ;
#1117 = ORIENTED_EDGE ( 'NONE', *, *, #486, .T. ) ;
#1118 = CARTESIAN_POINT ( 'NONE',  ( 0.000000000000000000, -1.423896517261427198E-17, 0.3870000000000017315 ) ) ;
#1119 = DIRECTION ( 'NONE',  ( 0.000000000000000000, -1.199596774661888198E-16, -1.000000000000000000 ) ) ;
#1120 = DIRECTION ( 'NONE',  ( 0.000000000000000000, -1.000000000000000000, 0.000000000000000000 ) ) ;
#1121 = EDGE_CURVE ( 'NONE', #365, #18, #160, .T. ) ;
#1122 = ADVANCED_FACE ( 'NONE', ( #310 ), #414, .T. ) ;
#1123 = ORIENTED_EDGE ( 'NONE', *, *, #1199, .F. ) ;
#1124 = DIRECTION ( 'NONE',  ( -0.000000000000000000, 1.199596774661888198E-16, 1.000000000000000000 ) ) ;
#1125 = ORIENTED_EDGE ( 'NONE', *, *, #1209, .T. ) ;
#1126 = CARTESIAN_POINT ( 'NONE',  ( 0.3774999999891864855, 2.857313827748747922E-06, 2.735586639785952591E-06 ) ) ;
#1127 = B_SPLINE_CURVE_WITH_KNOTS ( 'NONE', 3,
 ( #1228, #752, #244, #940 ),
 .UNSPECIFIED., .F., .F.,
 ( 4, 4 ),
 ( 0.000000000000000000, 1.000000000000000000 ),
 .UNSPECIFIED. ) ;
#1128 = EDGE_CURVE ( 'NONE', #666, #1028, #546, .T. ) ;
#1129 = ORIENTED_EDGE ( 'NONE', *, *, #1242, .T. ) ;
#1130 = EDGE_CURVE ( 'NONE', #365, #118, #3, .T. ) ;
#1131 = CARTESIAN_POINT ( 'NONE',  ( 0.3847291339280936029, -0.04625736165129919891, 0.07820299421398962947 ) ) ;
#1132 = EDGE_LOOP ( 'NONE', ( #248, #1222, #654, #850 ) ) ;
#1133 = CARTESIAN_POINT ( 'NONE',  ( 0.000000000000000000, 1.671063161366223189E-17, 0.6449999999999999067 ) ) ;
#1134 = VECTOR ( 'NONE', #446, 39.37007874015748143 ) ;
#1135 = ORIENTED_EDGE ( 'NONE', *, *, #177, .F. ) ;
#1136 = CARTESIAN_POINT ( 'NONE',  ( 0.000000000000000000, -7.202394518782261894E-17, 0.1031999999999998752 ) ) ;
#1137 = EDGE_LOOP ( 'NONE', ( #376, #960, #1141, #656 ) ) ;
#1138 = AXIS2_PLACEMENT_3D ( 'NONE', #1244, #647, #669 ) ;
#1139 = FACE_OUTER_BOUND ( 'NONE', #295, .T. ) ;
#1140 = VERTEX_POINT ( 'NONE', #1078 ) ;
#1141 = ORIENTED_EDGE ( 'NONE', *, *, #9, .T. ) ;
#1142 = DIRECTION ( 'NONE',  ( -0.000000000000000000, 1.199596774661888198E-16, 1.000000000000000000 ) ) ;
#1143 = ORIENTED_EDGE ( 'NONE', *, *, #685, .T. ) ;
#1144 = ADVANCED_FACE ( 'NONE', ( #608, #593 ), #813, .F. ) ;
#1145 = ADVANCED_FACE ( 'NONE', ( #289 ), #1050, .T. ) ;
#1146 = FACE_OUTER_BOUND ( 'NONE', #207, .T. ) ;
#1147 = ORIENTED_EDGE ( 'NONE', *, *, #313, .T. ) ;
#1148 = CC_DESIGN_PERSON_AND_ORGANIZATION_ASSIGNMENT ( #308, #322, ( #934 ) ) ;
#1149 = FACE_OUTER_BOUND ( 'NONE', #453, .T. ) ;
#1150 = ORIENTED_EDGE ( 'NONE', *, *, #363, .T. ) ;
#1151 = CARTESIAN_POINT ( 'NONE',  ( -0.03999999999999997308, -6.712535799123320463E-17, -0.6449999999999999067 ) ) ;
#1152 = ORIENTED_EDGE ( 'NONE', *, *, #944, .F. ) ;
#1153 = DIRECTION ( 'NONE',  ( -0.000000000000000000, 1.199596774661888198E-16, 1.000000000000000000 ) ) ;
#1154 = ORIENTED_EDGE ( 'NONE', *, *, #1128, .T. ) ;
#1155 = AXIS2_PLACEMENT_3D ( 'NONE', #981, #482, #104 ) ;
#1156 = CARTESIAN_POINT ( 'NONE',  ( 0.000000000000000000, -3.150116275999906395E-17, 0.2430999999999998717 ) ) ;
#1157 = VERTEX_POINT ( 'NONE', #990 ) ;
#1158 = CARTESIAN_POINT ( 'NONE',  ( 0.3783961092660172998, -0.01515958920465622708, 0.07820080333368652215 ) ) ;
#1159 = AXIS2_PLACEMENT_3D ( 'NONE', #140, #824, #349 ) ;
#1160 = ORIENTED_EDGE ( 'NONE', *, *, #136, .T. ) ;
#1161 = AXIS2_PLACEMENT_3D ( 'NONE', #595, #5, #100 ) ;
#1162 = CYLINDRICAL_SURFACE ( 'NONE', #904, 0.06250000000000009714 ) ;
#1163 = UNCERTAINTY_MEASURE_WITH_UNIT (LENGTH_MEASURE( 1.000000000000000082E-05 ), #96, 'distance_accuracy_value', 'NONE');
#1164 = VERTEX_POINT ( 'NONE', #12 ) ;
#1165 = DIRECTION ( 'NONE',  ( 0.000000000000000000, -1.000000000000000000, 0.000000000000000000 ) ) ;
#1166 = ORIENTED_EDGE ( 'NONE', *, *, #460, .T. ) ;
#1167 = DIRECTION ( 'NONE',  ( 0.000000000000000000, -1.000000000000000000, 0.000000000000000000 ) ) ;
#1168 = VERTEX_POINT ( 'NONE', #304 ) ;
#1169 = LINE ( 'NONE', #772, #247 ) ;
#1170 = ORIENTED_EDGE ( 'NONE', *, *, #596, .T. ) ;
#1171 = FACE_OUTER_BOUND ( 'NONE', #905, .T. ) ;
#1172 = ADVANCED_FACE ( 'NONE', ( #703 ), #1202, .T. ) ;
#1173 = CARTESIAN_POINT ( 'NONE',  ( 0.000000000000000000, 0.3474999999999999201, 0.1505999999999998451 ) ) ;
#1174 = EDGE_LOOP ( 'NONE', ( #866, #360 ) ) ;
#1175 = CARTESIAN_POINT ( 'NONE',  ( 0.000000000000000000, -7.202394518782261894E-17, 0.6449999999999999067 ) ) ;
#1176 = DIRECTION ( 'NONE',  ( -1.000000000000000000, 0.000000000000000000, -0.000000000000000000 ) ) ;
#1177 = APPROVAL_ROLE ( '' ) ;
#1178 = CIRCLE ( 'NONE', #417, 0.07249999999999952316 ) ;
#1179 = DIRECTION ( 'NONE',  ( -0.000000000000000000, 1.356878142548475267E-16, -1.000000000000000000 ) ) ;
#1180 = EDGE_LOOP ( 'NONE', ( #942, #1147, #1107, #463 ) ) ;
#1181 = PLANE ( 'NONE',  #222 ) ;
#1182 = AXIS2_PLACEMENT_3D ( 'NONE', #528, #43, #134 ) ;
#1183 = CARTESIAN_POINT ( 'NONE',  ( 0.3847282546750202537, 0.04626467393933295785, 0.07819642218118273702 ) ) ;
#1184 = CIRCLE ( 'NONE', #999, 0.07249999999999953704 ) ;
#1185 = DIRECTION ( 'NONE',  ( 0.000000000000000000, 1.000000000000000000, -9.826791344116055949E-17 ) ) ;
#1186 = DATE_TIME_ROLE ( 'creation_date' ) ;
#1187 = CARTESIAN_POINT ( 'NONE',  ( 0.3774999999891864855, 2.857313827748747922E-06, 2.735586639785952591E-06 ) ) ;
#1188 = ORIENTED_EDGE ( 'NONE', *, *, #696, .T. ) ;
#1189 = CARTESIAN_POINT ( 'NONE',  ( 0.000000000000000000, 0.07249999999999942601, 0.3870000000000017315 ) ) ;
#1190 = DIRECTION ( 'NONE',  ( 0.000000000000000000, -1.000000000000000000, 0.000000000000000000 ) ) ;
#1191 = DIRECTION ( 'NONE',  ( 0.000000000000000000, -1.000000000000000000, 1.309192329232077588E-16 ) ) ;
#1192 = EDGE_CURVE ( 'NONE', #870, #63, #637, .T. ) ;
#1193 = APPROVAL_DATE_TIME ( #22, #555 ) ;
#1194 = ORIENTED_EDGE ( 'NONE', *, *, #871, .T. ) ;
#1195 = FACE_OUTER_BOUND ( 'NONE', #989, .T. ) ;
#1196 = CARTESIAN_POINT ( 'NONE',  ( 0.000000000000000000, 1.671063161366223189E-17, 0.6449999999999999067 ) ) ;
#1197 = DIRECTION ( 'NONE',  ( 0.000000000000000000, -1.000000000000000000, 1.199596774661888198E-16 ) ) ;
#1198 = PERSON_AND_ORGANIZATION ( #286, #346 ) ;
#1199 = EDGE_CURVE ( 'NONE', #870, #949, #458, .T. ) ;
#1200 = CARTESIAN_POINT ( 'NONE',  ( 0.000000000000000000, -7.202394518782261894E-17, 0.1031999999999998752 ) ) ;
#1201 = DIRECTION ( 'NONE',  ( 0.000000000000000000, 1.000000000000000000, -1.199596774661888198E-16 ) ) ;
#1202 = TOROIDAL_SURFACE ( 'NONE', #1256, 0.04250000000000010020, 0.02000000000000000042 ) ;
#1203 = FACE_OUTER_BOUND ( 'NONE', #1045, .T. ) ;
#1204 = CIRCLE ( 'NONE', #621, 0.3474999999999999756 ) ;
#1205 = ORIENTED_EDGE ( 'NONE', *, *, #444, .T. ) ;
#1206 = PERSON_AND_ORGANIZATION ( #286, #346 ) ;
#1207 = AXIS2_PLACEMENT_3D ( 'NONE', #477, #1254, #877 ) ;
#1208 = EDGE_CURVE ( 'NONE', #275, #155, #832, .T. ) ;
#1209 = EDGE_CURVE ( 'NONE', #390, #242, #143, .T. ) ;
#1210 = CARTESIAN_POINT ( 'NONE',  ( 8.878689293818255655E-18, 0.07249999999999943989, -0.1747250000000001302 ) ) ;
#1211 = DIRECTION ( 'NONE',  ( 1.000000000000000000, 0.000000000000000000, 0.000000000000000000 ) ) ;
#1212 = DIRECTION ( 'NONE',  ( -0.000000000000000000, 1.199596774661888198E-16, 1.000000000000000000 ) ) ;
#1213 = DIRECTION ( 'NONE',  ( -0.000000000000000000, 1.199596774661888198E-16, 1.000000000000000000 ) ) ;
#1214 = LINE ( 'NONE', #624, #67 ) ;
#1215 = CARTESIAN_POINT ( 'NONE',  ( 0.3875001169834277892, -0.01545404404094939850, 0.02606952435309851934 ) ) ;
#1216 = CARTESIAN_POINT ( 'NONE',  ( -0.3778937007874015874, 0.3774999999999999467, 0.1031999999999999029 ) ) ;
#1217 = AXIS2_PLACEMENT_3D ( 'NONE', #359, #89, #259 ) ;
#1218 = DIRECTION ( 'NONE',  ( 0.000000000000000000, 1.000000000000000000, 0.000000000000000000 ) ) ;
#1219 = AXIS2_PLACEMENT_3D ( 'NONE', #743, #1212, #132 ) ;
#1220 = AXIS2_PLACEMENT_3D ( 'NONE', #108, #710, #908 ) ;
#1221 = DIRECTION ( 'NONE',  ( 0.000000000000000000, -1.000000000000000000, 1.199596774661888198E-16 ) ) ;
#1222 = ORIENTED_EDGE ( 'NONE', *, *, #890, .F. ) ;
#1223 = CARTESIAN_POINT ( 'NONE',  ( 4.439344646909155407E-17, -0.3475000000000000311, 0.1805999999999999550 ) ) ;
#1224 = EDGE_CURVE ( 'NONE', #658, #661, #996, .T. ) ;
#1225 = ADVANCED_FACE ( 'NONE', ( #665 ), #88, .T. ) ;
#1226 = CARTESIAN_POINT ( 'NONE',  ( 0.03999999999999997308, -7.202394518782261894E-17, -0.6449999999999999067 ) ) ;
#1227 = ORIENTED_EDGE ( 'NONE', *, *, #444, .F. ) ;
#1228 = CARTESIAN_POINT ( 'NONE',  ( 0.3748006401493039763, -0.04506362328610438728, 0.07820299421398962947 ) ) ;
#1229 = ORIENTED_EDGE ( 'NONE', *, *, #696, .F. ) ;
#1230 = CARTESIAN_POINT ( 'NONE',  ( 0.3747997835866324623, 0.04507074686993080975, 0.07819642218118273702 ) ) ;
#1231 = ORIENTED_EDGE ( 'NONE', *, *, #542, .T. ) ;
#1232 = DIRECTION ( 'NONE',  ( -0.000000000000000000, 1.199596774661888198E-16, 1.000000000000000000 ) ) ;
#1233 = CONICAL_SURFACE ( 'NONE', #204, 0.06250000000000012490, 0.1479858941958359930 ) ;
#1234 = ORIENTED_EDGE ( 'NONE', *, *, #326, .F. ) ;
#1235 = AXIS2_PLACEMENT_3D ( 'NONE', #738, #1027, #126 ) ;
#1236 = ADVANCED_FACE ( 'NONE', ( #1149 ), #1052, .F. ) ;
#1237 = VERTEX_POINT ( 'NONE', #655 ) ;
#1238 = CARTESIAN_POINT ( 'NONE',  ( 0.3884195514286698514, 0.01556855016719872059, 0.07819861306148584434 ) ) ;
#1239 = AXIS2_PLACEMENT_3D ( 'NONE', #796, #809, #116 ) ;
#1240 = EDGE_LOOP ( 'NONE', ( #721, #77, #450, #489 ) ) ;
#1241 = ADVANCED_FACE ( 'NONE', ( #1066 ), #367, .T. ) ;
#1242 = EDGE_CURVE ( 'NONE', #931, #668, #375, .T. ) ;
#1243 = CONICAL_SURFACE ( 'NONE', #1084, 0.08749999999999974465, 0.1479858941958377416 ) ;
#1244 = CARTESIAN_POINT ( 'NONE',  ( 0.000000000000000000, -7.202394518782261894E-17, 0.1031999999999998752 ) ) ;
#1245 = EDGE_LOOP ( 'NONE', ( #545, #531, #879, #279 ) ) ;
#1246 = VERTEX_POINT ( 'NONE', #778 ) ;
#1247 = CARTESIAN_POINT ( 'NONE',  ( 0.3865737648935045345, 0.03091776095182424688, 0.05213182080227125176 ) ) ;
#1248 = EDGE_LOOP ( 'NONE', ( #758, #847, #368, #1035 ) ) ;
#1249 = CARTESIAN_POINT ( 'NONE',  ( 0.000000000000000000, -0.07249999999999950928, 0.6449999999999999067 ) ) ;
#1250 = ORIENTED_EDGE ( 'NONE', *, *, #554, .F. ) ;
#1251 = VERTEX_POINT ( 'NONE', #481 ) ;
#1252 = CARTESIAN_POINT ( 'NONE',  ( 7.654042494670969871E-18, 0.06250000000000012490, 0.6449999999999999067 ) ) ;
#1253 = ORIENTED_EDGE ( 'NONE', *, *, #961, .T. ) ;
#1254 = DIRECTION ( 'NONE',  ( -0.000000000000000000, 1.199596774661888198E-16, 1.000000000000000000 ) ) ;
#1255 = ORIENTED_EDGE ( 'NONE', *, *, #765, .F. ) ;
#1256 = AXIS2_PLACEMENT_3D ( 'NONE', #600, #995, #112 ) ;
#1257 = DIRECTION ( 'NONE',  ( 1.000000000000000000, 0.000000000000000000, 0.000000000000000000 ) ) ;
#1258 = ORIENTED_EDGE ( 'NONE', *, *, #9, .F. ) ;
#1259 = CARTESIAN_POINT ( 'NONE',  ( 0.000000000000000000, -0.06250000000000023592, -0.6249999999999998890 ) ) ;
#1260 = VECTOR ( 'NONE', #840, 39.37007874015748143 ) ;
#1261 = ORIENTED_EDGE ( 'NONE', *, *, #810, .F. ) ;
#1262 = CARTESIAN_POINT ( 'NONE',  ( 0.3747997835866324623, 0.04507074686993080975, 0.07819642218118273702 ) ) ;
#1263 = VERTEX_POINT ( 'NONE', #784 ) ;
#1264 = ADVANCED_FACE ( 'NONE', ( #1171 ), #1270, .T. ) ;
#1265 = DIRECTION ( 'NONE',  ( 0.000000000000000000, -1.000000000000000000, 1.228348918014506994E-16 ) ) ;
#1266 = CARTESIAN_POINT ( 'NONE',  ( 0.000000000000000000, -1.423896517261427198E-17, 0.3870000000000017315 ) ) ;
#1267 = VERTEX_POINT ( 'NONE', #957 ) ;
#1268 = DIRECTION ( 'NONE',  ( 0.000000000000000000, -1.356878142548475267E-16, 1.000000000000000000 ) ) ;
#1269 = CARTESIAN_POINT ( 'NONE',  ( 0.3847291339280936029, -0.04625736165129919891, 0.07820299421398962947 ) ) ;
#1270 = CYLINDRICAL_SURFACE ( 'NONE', #243, 0.06249999999999972938 ) ;
ENDSEC;
END-ISO-10303-21;
